<svg width="300" height="100" viewBox="0 0 300 100" xmlns="http://www.w3.org/2000/svg"><path d="M14 26.4103L279.63 9L283.038 60.9885L17.4075 78.3988L14 26.4103Z" fill="#E3CCB9"/><path d="M17.3042 28.1098L282.934 10.6995L286.342 62.688L20.7117 80.0983L17.3042 28.1098Z" fill="#F05E5D"/><path d="M53.7217 69.85V69.65L54.0217 69.15V68.95C54.0217 68.45 53.8217 68.15 53.6217 68.15C53.5217 67.05 51.6217 66.65 47.9217 66.95C47.7217 66.15 47.4217 65.75 47.0217 65.75C46.9217 64.95 47.0217 64.55 47.0217 64.45C47.0217 64.15 46.7217 63.65 46.3217 63.05C46.5217 62.35 46.5217 61.95 46.5217 61.95C46.5217 61.65 46.3217 61.25 46.1217 60.85L46.2217 60.15C46.1217 58.95 45.7217 58.15 44.9217 57.65C44.9217 57.25 44.5217 56.45 43.9217 54.95V54.75C43.8217 53.85 44.7217 52.85 46.6217 51.65C46.8217 51.25 47.0217 50.95 47.2217 50.55C47.8217 49.45 48.2217 48.45 48.5217 47.85C48.7217 47.25 48.9217 46.85 48.8217 46.65L48.5217 45.55C48.7217 45.25 48.9217 44.55 49.0217 43.55C48.5217 42.35 48.1217 41.35 47.9217 40.55C47.9217 40.55 48.0217 40.55 48.0217 40.45V40.35H47.8217C47.7217 39.95 47.7217 39.65 47.6217 39.35C45.1217 36.85 43.6217 35.55 43.1217 35.65C42.9217 35.65 42.6217 35.85 42.3217 36.25H42.0217C41.8217 36.25 41.7217 36.15 41.7217 35.75C41.7217 35.45 41.0217 35.15 39.5217 34.75L38.9217 35.25H38.4217C38.4217 34.75 38.2217 34.35 38.0217 34.15H37.8217C37.3217 34.15 36.8217 34.55 36.4217 35.35H36.2217C35.7217 34.75 35.4217 34.45 35.3217 34.45H34.8217L33.9217 35.65C33.3217 35.05 32.9217 34.75 32.9217 34.75H32.6217L31.8217 35.55H31.5217C31.5217 34.95 30.7217 34.55 29.3217 34.45C29.3217 34.55 29.0217 34.75 28.4217 34.85C28.2217 34.85 27.8217 34.75 27.2217 34.45C27.0217 34.45 26.5217 34.65 26.0217 35.05L25.2217 34.95L23.8217 35.25L22.6217 35.15L22.7217 35.35C22.4217 35.35 22.0217 35.25 21.6217 35.15C20.3217 35.85 19.6217 36.55 19.7217 37.35C19.8217 38.65 20.9217 39.65 23.0217 40.45C23.1217 40.45 23.1217 40.35 23.0217 40.15C23.2217 40.15 23.6217 40.25 24.0217 40.55C24.9217 41.95 25.4217 42.55 25.5217 42.55C25.5217 42.85 25.3217 43.55 24.8217 44.55C25.1217 46.15 25.4217 47.15 25.7217 47.65C25.5217 48.05 25.4217 48.55 25.5217 48.95L25.6217 50.85C25.3217 52.05 25.1217 52.85 25.1217 53.15V53.35C25.1217 53.85 25.3217 54.25 25.5217 54.65C25.5217 54.85 25.4217 55.25 25.3217 55.95C25.3217 56.55 25.5217 57.05 25.7217 57.35C25.5217 57.85 25.5217 58.15 25.5217 58.35C25.5217 58.65 25.7217 59.05 25.9217 59.45C25.7217 59.95 25.7217 60.25 25.7217 60.45L26.0217 61.85C26.0217 61.95 25.9217 62.25 25.7217 62.85L26.1217 63.95L25.9217 65.05C25.9217 65.15 26.1217 65.75 26.4217 66.85L25.5217 68.05C25.3217 68.25 24.2217 68.55 22.3217 69.15L21.4217 68.55H21.1217C20.6217 68.55 20.1217 68.95 19.6217 69.75H19.3217L18.5217 69.65V70.25H18.8217V70.85H18.5217V71.15L19.5217 71.35C19.7217 71.75 20.0217 72.15 20.6217 72.65C21.7217 72.75 22.9217 73.15 24.1217 73.85C24.6217 73.75 25.5217 73.25 26.6217 72.55C27.3217 72.75 27.7217 72.75 27.7217 72.75C28.0217 72.75 28.4217 72.55 28.8217 72.35C28.9217 72.35 29.2217 72.55 29.8217 72.95H30.3217C30.8217 72.45 31.1217 72.25 31.2217 72.25C31.2217 72.35 31.5217 72.55 32.1217 72.85H32.6217C33.1217 72.35 33.4217 72.15 33.5217 72.15C34.0217 72.35 34.3217 72.35 34.5217 72.35C34.8217 72.35 35.2217 72.15 35.6217 71.95L36.4217 72.05C36.4217 72.05 36.6217 71.95 36.9217 71.65L36.7217 70.85V70.65H36.9217C37.4217 70.65 37.7217 70.55 37.7217 70.35C38.4217 69.95 38.8217 69.75 38.8217 69.65V69.15L38.5217 68.75C37.7217 68.75 36.9217 68.45 36.2217 67.95L35.9217 68.15C35.7217 68.15 35.4217 67.95 35.0217 67.55L33.7217 67.65L32.1217 67.95C31.5217 67.55 31.1217 67.05 30.9217 66.65C30.8217 65.85 31.2217 65.35 31.9217 65.25V64.65C31.1217 64.55 30.7217 64.35 30.7217 63.75C30.7217 63.55 30.8217 62.95 31.1217 62.15L30.7217 61.55C30.7217 61.35 30.8217 61.05 31.1217 60.75L31.0217 59.95C30.8217 59.65 30.6217 59.45 30.5217 59.45C30.5217 59.15 30.5217 58.55 30.7217 57.45C30.6217 56.15 31.2217 55.45 32.6217 55.35H33.8217V55.55C34.3217 55.55 35.0217 55.45 35.9217 55.25C36.1217 55.25 36.9217 55.55 38.2217 56.15C39.0217 56.05 39.9217 57.15 40.9217 59.15V60.75C40.9217 60.85 41.0217 61.15 41.1217 61.65C40.9217 62.35 40.9217 62.75 40.9217 62.75C40.9217 63.05 41.1217 63.45 41.3217 63.85L41.1217 65.55C41.1217 65.85 41.3217 66.15 41.5217 66.55C41.5217 66.85 41.3217 67.15 40.9217 67.75C40.9217 68.35 41.5217 69.05 42.7217 69.85C42.9217 70.35 43.3217 70.95 44.0217 71.65L45.0217 71.45C45.3217 71.45 45.8217 71.55 46.7217 71.95C46.9217 71.95 47.1217 71.85 47.3217 71.55H47.6217C47.6217 71.65 48.2217 71.85 49.4217 72.05C50.5217 71.95 51.3217 71.65 51.8217 71.05C52.3217 71.55 52.6217 71.85 52.7217 71.75H53.2217C54.2217 70.85 54.7217 70.15 54.7217 69.55C54.4217 70.05 54.2217 69.95 53.7217 69.85V69.85ZM20.5217 38.15V37.65H21.0217V38.15H20.5217ZM25.0217 36.15H25.5217V36.65H25.0217V36.15ZM25.2217 38.85V38.35H25.7217V38.85H25.2217ZM26.3217 37.65V37.15H26.8217V37.65H26.3217ZM27.3217 35.95H27.8217V36.45H27.3217V35.95ZM27.5217 38.75V38.25H28.0217V38.75H27.5217ZM42.8217 40.45V40.95H42.3217V40.85C42.4217 40.85 42.5217 40.75 42.6217 40.65C42.6217 40.65 42.5217 40.65 42.3217 40.75V40.35L42.8217 40.45ZM41.6217 39.85H41.1217V39.35H41.6217V39.85ZM41.4217 37.15V37.65H40.9217V37.15H41.4217ZM40.4217 38.85H39.9217V38.35H40.4217V38.85ZM40.2217 36.15V36.65H39.7217V36.15H40.2217ZM39.2217 37.35V37.85H38.7217V37.35H39.2217ZM38.2217 39.05H37.7217V38.55H38.2217V39.05ZM37.9217 36.25V36.75H37.4217V36.25H37.9217ZM36.9217 37.45V37.95H36.4217V37.45H36.9217ZM35.9217 39.15H35.4217V38.65H35.9217V39.15ZM35.7217 36.45V36.95H35.2217V36.45H35.7217ZM34.6217 37.65V38.15H34.1217V37.65H34.6217ZM33.6217 39.35H33.1217V38.85H33.6217V39.35ZM33.3217 36.45C33.5217 36.45 33.6217 36.55 33.6217 36.75C33.6217 36.95 33.5217 37.05 33.3217 37.15H33.0217V36.85C32.9217 36.65 33.1217 36.55 33.3217 36.45ZM32.4217 37.85V38.35H31.9217V37.85H32.4217ZM31.4217 39.55H30.9217V39.05H31.4217V39.55ZM31.2217 36.85V37.35H30.7217V36.85H31.2217ZM30.2217 38.55H29.7217V38.05H30.2217V38.55ZM30.0217 35.75V36.25H29.5217V35.75H30.0217ZM28.4217 37.05H28.9217V37.55H28.4217V37.05ZM28.6217 39.25H29.1217V39.75H28.6217V39.25ZM28.8217 41.55H29.3217V42.05H28.8217V41.55ZM30.8217 52.85V52.35H31.3217V52.85H30.8217ZM43.1217 45.95L42.8217 46.55C42.2217 47.85 40.8217 49.25 38.6217 50.85H38.5217C38.4217 50.95 38.2217 50.95 38.1217 51.05V51.15C38.1217 51.15 38.0217 51.25 37.9217 51.25H37.7217L36.6217 51.05C36.2217 51.05 35.9217 51.25 35.5217 51.65H35.3217L34.5217 51.25C34.2217 51.25 33.8217 51.45 33.2217 51.85C32.6217 51.85 32.1217 51.95 31.8217 51.95C30.9217 52.05 30.3217 50.85 29.8217 48.55L30.4217 47.65C30.4217 47.55 30.3217 47.35 30.2217 47.15C30.3217 47.15 30.4217 46.85 30.5217 46.15C30.5217 45.95 30.4217 45.85 30.3217 45.85C30.2217 44.65 29.8217 44.15 29.0217 44.15V43.65H29.2217L30.0217 43.75C30.0217 43.65 30.0217 43.55 30.2217 43.55L29.9217 42.45L30.3217 40.85V40.65H30.0217V40.15H30.5217C30.5217 40.25 30.6217 40.45 30.7217 40.65C30.9217 40.65 31.5217 40.35 32.4217 39.85C32.7217 39.85 33.1217 39.95 33.5217 40.05C33.7217 40.05 34.1217 39.95 34.8217 39.65L35.8217 40.05C36.0217 40.05 36.4217 39.85 36.9217 39.45C37.0217 39.45 37.5217 39.65 38.3217 40.15C38.3217 40.05 38.5217 39.85 39.0217 39.45H39.5217C40.7217 40.35 41.2217 40.85 41.2217 40.95C41.4217 40.95 41.6217 41.05 41.7217 41.15C41.6217 41.25 41.4217 41.25 41.3217 41.35C41.4217 41.25 41.5217 41.25 41.7217 41.15C42.5217 41.45 43.0217 42.15 43.1217 43.05V43.15L43.0217 43.25C43.0217 43.35 43.1217 43.45 43.2217 43.55C43.3217 43.65 43.3217 43.75 43.3217 43.95C43.3217 44.65 43.3217 45.35 43.1217 45.95V45.95Z" fill="#E3CCB9"/><path d="M54.6217 70.75V70.55L54.9217 70.05V69.85C54.9217 69.35 54.7217 69.05 54.5217 69.05C54.4217 67.95 52.5217 67.55 48.8217 67.85C48.6217 67.05 48.3217 66.65 47.9217 66.65C47.8217 65.85 47.9217 65.45 47.9217 65.35C47.9217 65.05 47.6217 64.55 47.2217 63.95C47.4217 63.25 47.4217 62.85 47.4217 62.85C47.4217 62.55 47.2217 62.15 47.0217 61.75L47.1217 61.05C47.0217 59.85 46.6217 59.05 45.8217 58.55C45.8217 58.15 45.4217 57.35 44.8217 55.85V55.65C44.7217 54.75 45.6217 53.75 47.5217 52.55C47.7217 52.15 47.9217 51.85 48.1217 51.45C48.7217 50.35 49.1217 49.35 49.4217 48.75C49.6217 48.15 49.8217 47.75 49.7217 47.55L49.4217 46.45C49.6217 46.15 49.8217 45.45 49.9217 44.45C49.8217 44.15 49.6217 43.85 49.5217 43.55C49.4217 43.45 49.4217 43.35 49.3217 43.15C49.1217 42.75 49.0217 42.25 48.8217 41.85L48.7217 41.55L48.4217 40.95C48.2217 40.65 48.2217 40.35 48.2217 39.95C45.9217 37.75 44.5217 36.65 44.1217 36.65C43.9217 36.65 43.6217 36.85 43.3217 37.25H43.0217C42.8217 37.25 42.7217 37.15 42.7217 36.75C42.7217 36.45 42.0217 36.15 40.5217 35.75L39.9217 36.25H39.4217C39.4217 35.75 39.2217 35.35 39.0217 35.15H38.8217C38.3217 35.15 37.8217 35.55 37.4217 36.35H37.2217C36.7217 35.75 36.4217 35.45 36.3217 35.45H35.8217L34.9217 36.65C34.3217 36.05 33.9217 35.75 33.9217 35.75H33.6217L32.8217 36.55H32.5217C32.5217 35.95 31.7217 35.55 30.3217 35.45C30.3217 35.55 30.0217 35.75 29.4217 35.85C29.2217 35.85 28.8217 35.75 28.2217 35.45C28.0217 35.45 27.5217 35.65 27.0217 36.05L26.2217 35.95L24.8217 36.25L23.6217 36.15L23.7217 36.35C23.4217 36.35 23.0217 36.25 22.6217 36.15C21.3217 36.85 20.6217 37.55 20.7217 38.35C20.8217 39.65 21.9217 40.65 24.0217 41.45C24.1217 41.45 24.1217 41.35 24.0217 41.15C24.2217 41.15 24.6217 41.25 25.0217 41.55C25.9217 42.95 26.4217 43.55 26.5217 43.55C26.5217 43.85 26.3217 44.55 25.8217 45.55C26.1217 47.15 26.4217 48.15 26.7217 48.65C26.5217 49.05 26.4217 49.55 26.5217 49.95L26.6217 51.85C26.3217 53.05 26.1217 53.85 26.1217 54.15V54.35C26.1217 54.85 26.3217 55.25 26.5217 55.65C26.5217 55.85 26.4217 56.25 26.3217 56.95C26.3217 57.55 26.5217 58.05 26.7217 58.35C26.5217 58.85 26.5217 59.15 26.5217 59.35C26.5217 59.65 26.7217 60.05 26.9217 60.45C26.7217 60.95 26.7217 61.25 26.7217 61.45L27.0217 62.85C27.0217 62.95 26.9217 63.25 26.7217 63.85L27.1217 64.95L26.9217 66.05C26.9217 66.15 27.1217 66.75 27.4217 67.85L26.5217 69.05C26.3217 69.25 25.2217 69.55 23.3217 70.15L22.4217 69.55H22.1217C21.6217 69.55 21.1217 69.95 20.6217 70.75H20.3217L19.5217 70.65V71.25H19.8217V71.85H19.5217V72.15L20.5217 72.35C20.7217 72.75 21.0217 73.15 21.6217 73.65C22.7217 73.75 23.9217 74.15 25.1217 74.85C25.6217 74.75 26.5217 74.25 27.6217 73.55C28.3217 73.75 28.7217 73.75 28.7217 73.75C29.0217 73.75 29.4217 73.55 29.8217 73.35C29.9217 73.35 30.2217 73.55 30.8217 73.95H31.3217C31.8217 73.45 32.1217 73.25 32.2217 73.25C32.2217 73.35 32.5217 73.55 33.0217 73.85H33.5217C34.0217 73.35 34.3217 73.15 34.4217 73.15C34.9217 73.35 35.2217 73.35 35.4217 73.35C35.7217 73.35 36.1217 73.15 36.5217 72.95L37.3217 73.05C37.3217 73.05 37.5217 72.95 37.8217 72.65L37.6217 71.85V71.65H37.8217C38.3217 71.65 38.6217 71.55 38.6217 71.35C39.3217 70.95 39.7217 70.75 39.7217 70.65V70.15L39.4217 69.75C38.6217 69.75 37.8217 69.45 37.1217 68.95L36.8217 69.15C36.6217 69.15 36.3217 68.95 35.9217 68.55L34.6217 68.65L33.0217 68.95C32.4217 68.55 32.0217 68.05 31.8217 67.65C31.7217 66.85 32.1217 66.35 32.8217 66.25V65.65C32.0217 65.55 31.6217 65.35 31.6217 64.75C31.6217 64.55 31.7217 63.95 32.0217 63.15L31.6217 62.55C31.6217 62.35 31.7217 62.05 32.0217 61.75L31.9217 60.95C31.7217 60.65 31.5217 60.45 31.4217 60.45C31.4217 60.15 31.4217 59.55 31.6217 58.45C31.5217 57.15 32.1217 56.45 33.5217 56.35H34.7217V56.55C35.2217 56.55 35.9217 56.45 36.8217 56.25C37.0217 56.25 37.8217 56.55 39.1217 57.15C39.9217 57.05 40.8217 58.15 41.8217 60.15V61.75C41.8217 61.85 41.9217 62.15 42.0217 62.65C41.8217 63.35 41.8217 63.75 41.8217 63.75C41.8217 64.05 42.0217 64.45 42.2217 64.85L42.0217 66.55C42.0217 66.85 42.2217 67.15 42.4217 67.55C42.4217 67.85 42.2217 68.15 41.8217 68.75C41.8217 69.35 42.4217 70.05 43.6217 70.85C43.8217 71.35 44.2217 71.95 44.9217 72.65L45.9217 72.45C46.2217 72.45 46.7217 72.55 47.6217 72.95C47.8217 72.95 48.0217 72.85 48.2217 72.55H48.5217C48.5217 72.65 49.1217 72.85 50.3217 73.05C51.4217 72.95 52.2217 72.65 52.7217 72.05C53.2217 72.55 53.5217 72.85 53.6217 72.75H54.1217C55.1217 71.85 55.6217 71.15 55.6217 70.55C55.3217 70.85 55.0217 70.85 54.6217 70.75V70.75ZM21.4217 38.95V38.45H21.9217V38.95H21.4217ZM25.9217 36.95H26.4217V37.45H25.9217V36.95ZM26.1217 39.75V39.25H26.6217V39.75H26.1217ZM27.1217 38.55V38.05H27.6217V38.55H27.1217ZM28.1217 36.85H28.6217V37.35H28.1217V36.85ZM28.3217 39.55V39.05H28.8217V39.55H28.3217ZM43.6217 41.25V41.75H43.1217V41.65C43.2217 41.65 43.3217 41.55 43.4217 41.45C43.4217 41.45 43.3217 41.45 43.1217 41.55V41.15L43.6217 41.25ZM42.4217 40.75H41.9217V40.25H42.4217V40.75ZM42.2217 37.95V38.45H41.7217V37.95H42.2217V37.95ZM41.2217 39.75H40.7217V39.25H41.2217V39.75ZM41.0217 36.95V37.45H40.5217V36.95H41.0217ZM40.0217 38.15V38.65H39.5217V38.15H40.0217ZM39.0217 39.85H38.5217V39.35H39.0217V39.85ZM38.8217 37.15V37.65H38.3217V37.15H38.8217ZM37.7217 38.35V38.85H37.2217V38.35H37.7217ZM36.7217 40.05H36.2217V39.55H36.7217V40.05ZM36.5217 37.35V37.85H36.0217V37.35H36.5217ZM35.5217 38.55V39.05H35.0217V38.55H35.5217ZM34.5217 40.25H34.0217V39.75H34.5217V40.25ZM34.1217 37.35C34.3217 37.35 34.4217 37.45 34.4217 37.65C34.4217 37.85 34.3217 37.95 34.1217 38.05H33.8217V37.75C33.8217 37.45 33.9217 37.35 34.1217 37.35ZM33.3217 38.65V39.15H32.8217V38.65H33.3217ZM32.2217 40.35H31.7217V39.85H32.2217V40.35ZM32.0217 37.65V38.15H31.5217V37.65H32.0217ZM31.0217 39.35H30.5217V38.85H31.0217V39.35ZM30.8217 36.65V37.15H30.3217V36.65H30.8217ZM29.3217 37.85H29.8217V38.35H29.3217V37.85ZM29.5217 40.15H30.0217V40.65H29.5217V40.15ZM29.6217 42.35H30.1217V42.85H29.6217V42.35ZM31.7217 53.65V53.15H32.2217V53.65H31.7217ZM39.4217 51.75C39.3217 51.75 39.3217 51.75 39.4217 51.75L39.3217 51.55H39.4217L39.3217 51.45L39.7217 50.15C39.4217 50.45 39.0217 50.65 38.6217 50.85L38.9217 52.05C38.9217 52.05 38.8217 52.15 38.7217 52.15H38.5217L37.4217 51.95C37.0217 51.95 36.7217 52.15 36.3217 52.55H36.1217L35.3217 52.15C35.0217 52.15 34.6217 52.35 34.0217 52.75C33.4217 52.75 32.9217 52.85 32.6217 52.85C31.7217 52.95 31.1217 51.75 30.6217 49.45L31.2217 48.55C31.2217 48.45 31.1217 48.25 31.0217 48.05C31.1217 48.05 31.2217 47.75 31.3217 47.05C31.3217 46.85 31.2217 46.75 31.1217 46.75C31.0217 45.55 30.6217 45.05 29.8217 45.05V44.55H30.0217L30.8217 44.65C30.8217 44.55 30.8217 44.45 31.0217 44.45L30.7217 43.35L31.1217 41.75V41.55H30.8217V41.15H31.3217C31.3217 41.25 31.4217 41.45 31.5217 41.65C31.7217 41.65 32.3217 41.35 33.2217 40.85C33.5217 40.85 33.9217 40.95 34.3217 41.05C34.5217 41.05 34.9217 40.95 35.6217 40.65L36.6217 41.05C36.8217 41.05 37.2217 40.85 37.7217 40.45C37.8217 40.45 38.3217 40.65 39.1217 41.15C39.1217 41.05 39.3217 40.85 39.8217 40.45H40.3217C41.5217 41.35 42.0217 41.85 42.0217 41.95C42.2217 41.95 42.4217 42.05 42.5217 42.15C42.4217 42.25 42.3217 42.25 42.2217 42.35C42.3217 42.25 42.4217 42.25 42.5217 42.15C43.3217 42.45 43.8217 43.15 43.9217 44.05V44.15C43.6217 44.35 43.3217 44.55 42.9217 44.85V45.25C43.0217 45.15 43.1217 45.15 43.2217 45.05C43.4217 44.95 43.7217 44.75 44.0217 44.55L44.1217 45.85C44.1217 47.45 42.6217 49.45 39.4217 51.75V51.75ZM68.3217 34.15L72.3217 34.85C73.2217 34.75 74.1217 35.45 74.9217 36.65C76.8217 38.25 78.3217 39.55 79.4217 40.75C79.9217 41.25 80.2217 41.75 80.2217 42.15C80.1217 42.75 80.0217 43.25 80.0217 43.45C80.6217 44.55 81.1217 46.25 81.5217 48.45C81.9217 48.55 82.1217 48.85 82.2217 49.45C82.3217 51.85 82.4217 53.25 82.4217 53.85C82.1217 55.25 82.0217 56.15 82.0217 56.35C82.0217 56.55 82.1217 56.75 82.2217 56.95L81.1217 61.25C80.5217 61.95 79.9217 63.45 79.1217 65.65C78.9217 65.85 78.0217 66.55 76.6217 67.45C76.1217 68.15 75.5217 68.75 74.6217 69.05C74.6217 69.45 73.4217 69.95 71.1217 70.65C67.5217 70.45 65.7217 70.15 65.7217 69.65C65.5217 69.65 65.0217 69.35 64.3217 68.75C63.3217 68.35 62.6217 68.15 62.2217 68.15L62.3217 67.85C61.7217 67.55 61.4217 67.35 61.4217 67.15L61.3217 66.25H60.7217L60.9217 67.25V67.35L60.3217 66.95L59.8217 64.65L58.5217 63.15H58.0217C58.2217 62.75 58.5217 62.55 58.7217 62.55C58.7217 61.95 58.0217 60.55 56.8217 58.45C56.8217 57.85 56.4217 56.15 55.8217 53.25C56.0217 53.25 56.1217 53.15 56.1217 52.95C55.9217 50.35 55.9217 49.05 55.9217 49.05C55.7217 48.75 55.6217 48.45 55.6217 48.15C56.0217 47.05 56.3217 46.25 56.6217 45.85V45.55L56.3217 45.15L56.2217 43.95C56.2217 43.05 57.2217 41.15 59.3217 38.35C59.2217 37.55 60.1217 36.75 61.8217 36.15C62.3217 35.35 63.0217 34.95 64.2217 34.85L68.3217 34.15V34.15ZM59.1217 64.55V64.65C58.7217 64.95 58.6217 65.15 58.6217 65.45C58.3217 64.95 58.4217 64.65 59.1217 64.55ZM58.8217 62.95V63.05C58.8217 63.25 59.0217 63.35 59.1217 63.35V63.15C59.1217 63.05 59.0217 62.95 58.8217 62.95V62.95ZM61.0217 45.75C61.2217 46.45 61.2217 46.85 61.2217 46.95C60.9217 47.35 60.8217 48.15 60.8217 49.35L60.2217 50.65V50.75L60.7217 54.95C61.5217 56.05 61.9217 57.35 62.0217 58.85C62.6217 59.75 63.5217 61.45 64.6217 63.95C65.8217 65.15 66.9217 65.65 67.9217 65.55C68.9217 66.15 70.0217 66.45 71.5217 66.25C71.8217 66.25 72.4217 65.85 73.5217 65.25C74.3217 65.15 75.1217 64.15 75.9217 62.35C76.6217 62.05 77.1217 60.25 77.5217 56.65C77.9217 55.75 78.2217 54.85 78.3217 53.95C78.6217 53.95 78.7217 53.75 78.7217 53.35L78.5217 49.25C77.3217 48.35 76.7217 47.85 76.6217 47.75V47.35L76.9217 45.75C76.5217 44.75 76.1217 43.85 76.0217 43.05C75.8217 43.05 75.4217 42.75 74.7217 41.95C74.6217 41.95 73.9217 41.35 72.5217 40.05C71.8217 40.15 71.0217 39.75 70.2217 38.95H66.6217C65.0217 39.55 64.2217 40.35 64.3217 41.25C64.2217 41.65 63.3217 42.35 61.7217 43.45C61.7217 44.05 61.5217 44.75 61.0217 45.75V45.75ZM60.4217 65.75C60.4217 65.85 60.6217 66.05 60.9217 66.15V66.05C60.9217 65.85 60.8217 65.75 60.6217 65.75H60.4217V65.75Z" fill="#E3CCB9"/><path d="M83.2217 54.65C83.2217 54.15 83.1217 52.65 83.0217 50.25C83.0217 49.75 82.7217 49.45 82.3217 49.25C81.9217 47.05 81.3217 45.35 80.8217 44.25C80.8217 44.05 80.8217 43.55 81.0217 42.95C81.0217 42.55 80.7217 42.05 80.2217 41.55C79.1217 40.35 77.6217 38.95 75.7217 37.35C74.9217 36.05 74.0217 35.45 73.1217 35.55L69.1217 34.85L64.9217 35.75C63.8217 35.85 63.0217 36.25 62.5217 37.05C60.8217 37.75 60.0217 38.45 60.0217 39.25C57.9217 42.15 56.9217 43.95 56.9217 44.85L57.0217 46.05L57.3217 46.45V46.75C57.1217 47.15 56.7217 47.85 56.3217 49.05C56.3217 49.35 56.4217 49.65 56.6217 49.95C56.5217 49.95 56.6217 51.25 56.8217 53.85C56.8217 54.05 56.7217 54.15 56.5217 54.15C57.1217 57.05 57.4217 58.75 57.5217 59.35C58.7217 61.45 59.4217 62.75 59.4217 63.45C59.2217 63.45 59.0217 63.65 58.8217 63.85C58.8217 63.95 58.9217 63.95 58.9217 63.95H59.1217L60.4217 65.45L60.9217 67.65L61.1217 67.85L61.5217 68.15V68.05L61.3217 67.05H61.9217L62.0217 67.95C62.0217 68.05 62.3217 68.35 62.9217 68.65L62.8217 68.95C63.1217 68.95 63.8217 69.15 64.9217 69.55C65.6217 70.15 66.1217 70.45 66.3217 70.45C66.3217 70.95 68.1217 71.25 71.7217 71.45C74.1217 70.85 75.3217 70.35 75.2217 69.85C76.1217 69.45 76.8217 68.95 77.2217 68.25C78.6217 67.35 79.5217 66.75 79.7217 66.45C80.4217 64.25 81.1217 62.85 81.7217 62.05L82.8217 57.75C82.7217 57.55 82.6217 57.35 82.6217 57.15C82.8217 56.95 83.0217 56.15 83.2217 54.65V54.65ZM59.6217 63.95V63.85C59.8217 63.85 59.9217 63.95 59.9217 64.15V64.35C59.8217 64.15 59.7217 64.05 59.6217 63.95ZM61.1217 66.55H61.2217C61.4217 66.55 61.5217 66.65 61.5217 66.85V66.95C61.3217 66.85 61.1217 66.65 61.1217 66.55ZM79.0217 54.85C78.9217 55.75 78.6217 56.65 78.2217 57.55C77.8217 61.05 77.3217 62.95 76.6217 63.25C75.8217 65.15 75.0217 66.05 74.2217 66.15C73.1217 66.85 72.5217 67.15 72.2217 67.15C70.8217 67.25 69.6217 67.05 68.6217 66.45C67.6217 66.55 66.5217 65.95 65.3217 64.85C64.2217 62.45 63.3217 60.75 62.7217 59.75C62.6217 58.15 62.1217 56.85 61.4217 55.85L60.9217 51.65V51.55L61.5217 50.25C61.5217 49.05 61.6217 48.35 61.9217 47.85C61.9217 47.75 61.8217 47.35 61.7217 46.65C62.2217 45.55 62.4217 44.85 62.4217 44.55C64.1217 43.45 64.9217 42.65 65.0217 42.35C64.9217 41.35 65.7217 40.55 67.3217 40.05H70.9217C71.7217 40.85 72.5217 41.25 73.2217 41.15C74.5217 42.35 75.2217 43.05 75.4217 43.05C76.0217 43.75 76.5217 44.15 76.7217 44.15C76.9217 44.95 77.2217 45.85 77.6217 46.85L77.3217 48.45V48.85C77.3217 48.95 77.9217 49.45 79.2217 50.35L79.4217 54.45C79.4217 54.65 79.3217 54.85 79.0217 54.85V54.85ZM91.6217 58.75H92.1217C92.2217 58.75 92.5217 59.15 93.2217 60.05V60.35C92.8217 60.85 92.6217 61.35 92.6217 61.75V61.95C93.0217 61.95 93.4217 62.15 93.6217 62.55V62.95L92.7217 63.75V64.05C92.7217 64.25 92.9217 64.35 93.2217 64.55H93.5217C93.8217 64.45 93.9217 64.05 93.9217 63.45L94.7217 63.35C94.7217 63.95 95.0217 64.25 95.4217 64.35L96.2217 64.15L96.3217 65.05L97.3217 65.65C97.3217 65.75 97.4217 65.85 97.5217 65.85C97.5217 66.35 96.8217 66.95 95.4217 67.75C95.2217 67.45 95.0217 67.25 95.0217 67.05L94.2217 67.15C93.9217 67.55 93.6217 67.65 93.4217 67.75C93.0217 67.65 92.7217 67.45 92.4217 67.15C92.3217 67.15 91.9217 67.55 91.4217 68.25H91.2217C91.1217 68.25 90.8217 67.95 90.2217 67.35H89.9217C89.5217 68.05 89.3217 68.45 89.2217 68.45H89.0217C88.5217 67.85 88.0217 67.55 87.7217 67.55C87.3217 67.95 87.0217 68.15 86.6217 68.15C85.6217 67.65 84.8217 66.95 84.2217 66.05V65.85C84.2217 65.65 84.5217 65.25 85.3217 64.55H85.6217C85.8217 64.55 85.9217 64.65 86.0217 64.85V65.15C85.5217 65.15 85.2217 65.35 85.1217 65.75L85.7217 66.35C86.1217 66.15 86.3217 65.95 86.3217 65.75V65.45L86.1217 65.15L86.9217 65.25C87.2217 65.25 87.4217 64.85 87.5217 63.95L88.3217 63.85C88.4217 64.65 88.8217 65.05 89.5217 64.95L89.6217 65.95C89.0217 66.05 88.7217 66.15 88.7217 66.35L88.8217 67.25L89.6217 67.35C89.8217 67.35 90.0217 66.95 90.2217 66.05C90.7217 66.05 91.0217 65.75 90.9217 65.15C90.9217 64.95 91.0217 64.75 91.2217 64.75H91.7217L92.6217 65.65L93.2217 65.05C93.2217 64.85 92.8217 64.55 92.1217 64.15L92.0217 63.45C92.6217 63.45 92.9217 63.25 92.9217 62.85L92.8217 61.95L91.8217 61.85L91.7217 60.85C92.3217 60.85 92.5217 60.65 92.5217 60.45V60.05C92.5217 59.85 92.4217 59.75 92.1217 59.75H91.8217L91.2217 60.85C90.7217 60.85 90.4217 61.35 90.3217 62.15L89.3217 62.35V62.05C89.3217 61.55 89.6217 61.05 90.3217 60.45C90.3217 59.85 90.5217 59.55 91.0217 59.55L91.6217 58.75V58.75ZM86.3217 66.35L86.4217 67.25L87.1217 67.45C87.2217 66.75 87.6217 66.35 88.1217 66.35C88.3217 66.35 88.4217 66.15 88.6217 65.85C88.4217 65.25 88.2217 65.05 87.7217 65.05C87.5217 65.05 87.3217 65.45 87.0217 66.35H86.3217V66.35ZM89.3217 62.55L89.4217 63.45H89.2217C89.0217 63.45 88.9217 63.35 88.9217 63.15C88.8217 62.95 89.0217 62.75 89.3217 62.55ZM90.4217 62.25L91.1217 62.15C91.3217 62.15 91.4217 62.25 91.4217 62.45L91.5217 63.15C90.7217 63.25 90.4217 63.55 90.5217 64.25V64.45L89.7217 64.55L89.4217 63.35L89.7217 63.55H90.2217C90.4217 63.55 90.5217 63.45 90.5217 63.15L90.4217 62.25V62.25ZM90.8217 57.45H91.0217L91.1217 58.35C91.1217 58.55 91.0217 58.75 90.8217 58.75H90.6217C90.4217 58.75 90.3217 58.65 90.3217 58.45V58.25C90.2217 57.95 90.4217 57.75 90.8217 57.45ZM90.7217 66.45V66.65C90.7217 66.85 90.9217 66.95 91.2217 67.15H91.4217C91.6217 67.15 91.7217 66.95 91.8217 66.55V66.35C91.8217 66.15 91.6217 66.05 91.3217 65.85H91.1217C91.0217 65.85 90.8217 66.05 90.7217 66.45ZM101.822 40.95H102.122C103.322 42.05 103.922 42.65 103.922 42.85C104.222 43.35 104.322 43.65 104.322 43.85C104.122 44.35 104.022 44.75 104.122 45.05C104.622 45.85 104.922 46.35 104.922 46.55C104.722 46.55 104.622 46.75 104.422 47.05V47.45C105.122 47.75 105.422 48.05 105.522 48.35C105.622 49.05 105.322 49.35 104.622 49.45V49.95H104.822L105.622 49.75C105.622 49.85 105.722 49.85 105.822 49.85L105.722 50.75C105.722 50.85 106.022 51.25 106.622 51.85V52.25C106.222 52.75 106.022 53.05 106.022 53.15V53.35L107.022 53.95C107.022 54.55 107.322 55.05 107.822 55.45V55.75C107.422 56.25 107.222 56.55 107.222 56.65V56.85C108.222 57.35 108.922 58.25 109.222 59.65C109.022 59.65 108.922 59.95 108.622 60.45C109.322 60.95 110.322 61.75 111.422 62.85H111.622C112.022 62.45 112.322 62.25 112.722 62.25C113.022 62.45 113.622 62.75 114.522 63.15C114.522 63.75 114.822 64.25 115.322 64.65V64.85C114.722 65.85 114.322 66.45 114.122 66.45H113.922C113.822 66.45 113.522 66.25 113.022 65.85H112.522L111.722 66.65H111.522L110.622 66.05H110.122L109.322 66.85H109.122L108.222 66.25H107.722L106.922 67.05H106.722L105.822 66.45H105.322L104.522 67.25H104.322C103.622 66.75 103.222 66.45 103.122 66.45L102.322 66.85L101.922 66.35C102.122 66.35 102.222 66.25 102.222 65.95L102.122 65.25C101.622 65.25 101.322 65.05 101.122 64.65V64.45C101.122 64.35 101.722 63.75 102.822 62.55H103.022L104.022 63.35H104.222C104.522 62.75 104.922 62.25 105.422 61.85V61.55L104.722 60.75V60.55C104.922 60.05 105.122 59.85 105.522 59.75V59.25C104.922 58.85 104.522 58.35 104.122 57.75C103.922 57.75 103.422 57.45 102.722 56.65H102.522C102.222 56.65 101.922 56.85 101.522 57.05C100.622 57.15 99.8217 56.65 99.1217 55.65H98.9217C98.7217 55.65 98.6217 55.85 98.6217 56.15L98.8217 57.05L98.0217 56.95C97.8217 56.95 97.4217 57.15 96.7217 57.35C96.1217 57.05 95.6217 56.95 95.4217 56.95L94.6217 57.55H94.3217C93.2217 57.05 92.6217 56.55 92.6217 55.95H92.1217C91.9217 55.95 91.8217 56.15 91.7217 56.55V56.75C91.7217 57.15 92.1217 57.25 92.7217 57.15L92.8217 57.85C92.8217 58.05 92.7217 58.25 92.5217 58.25H92.2217L91.5217 57.25C91.3217 57.15 91.1217 57.15 90.8217 57.15V56.65L91.7217 55.75V55.25C91.7217 55.05 91.3217 54.95 90.5217 54.85V54.35L91.6217 53.25V53.05C91.4217 52.65 91.2217 52.35 91.2217 52.05H91.4217C91.8217 52.25 92.1217 52.45 92.1217 52.55C92.5217 52.45 92.7217 52.05 92.7217 51.65C91.9217 51.35 91.5217 51.15 91.5217 51.05V50.75C91.5217 50.45 91.8217 50.25 92.6217 49.95C92.6217 49.35 92.7217 49.05 92.9217 49.05L93.5217 48.95C93.5217 49.15 93.6217 49.25 93.7217 49.25C93.7217 49.45 93.3217 49.85 92.5217 50.25V50.45L92.7217 51.35L93.8217 51.25L93.9217 50.05L94.7217 49.95L94.9217 50.85C94.2217 51.35 93.8217 51.65 93.8217 51.75C95.1217 53.25 96.1217 54.15 96.9217 54.45C97.4217 54.05 97.8217 53.85 98.0217 53.85L98.8217 54.35L99.5217 54.25C99.5217 53.85 99.7217 53.65 100.122 53.35H100.322C100.722 53.55 101.022 53.85 101.022 54.15H101.522L102.822 52.25C102.522 51.55 102.422 51.15 102.422 50.95C102.622 50.45 102.622 50.05 102.622 49.95C102.522 49.95 102.122 49.65 101.622 48.95V48.75L102.322 47.65V47.45C101.722 46.95 101.222 46.25 100.822 45.35C101.022 44.75 101.122 44.25 101.022 43.95C100.322 43.55 100.022 43.15 99.9217 42.65C100.822 42.35 101.322 41.85 101.822 40.95V40.95ZM93.7217 40.25H94.2217C94.3217 41.15 94.7217 41.65 95.4217 41.55C95.4217 41.85 95.5217 42.05 95.6217 42.05C95.6217 42.25 95.3217 42.65 94.5217 42.95C94.5217 43.45 94.4217 43.65 94.2217 43.65C93.7217 43.75 93.4217 43.95 93.4217 44.25V44.55C93.4217 44.75 93.6217 44.85 93.9217 45.05H94.2217C94.5217 44.35 94.8217 43.95 94.9217 43.95C95.4217 43.65 95.7217 43.15 95.6217 42.55H96.1217C96.3217 42.55 96.4217 42.65 96.5217 42.85V43.05C95.9217 44.05 95.3217 44.95 94.6217 45.65V46.15C94.9217 46.15 95.2217 46.35 95.5217 46.75V46.95C95.3217 47.45 95.1217 47.65 94.7217 47.75L94.8217 49.15C93.9217 48.95 93.4217 48.55 93.4217 47.65L92.4217 47.75C92.5217 48.55 92.2217 48.95 91.7217 49.05L91.4217 48.55C91.4217 48.45 91.7217 47.95 92.4217 47.25C92.4217 46.75 92.7217 46.55 93.3217 46.45C93.5217 46.45 93.6217 46.25 93.6217 45.95C93.6217 45.75 93.3217 45.45 92.7217 45.05V44.55L93.3217 43.75V43.25L92.6217 42.65C92.6217 42.45 92.7217 42.25 93.0217 42.05C93.3217 42.55 93.5217 42.85 93.7217 42.85C94.1217 42.75 94.3217 42.35 94.3217 41.75C93.7217 41.55 93.4217 41.45 93.1217 41.45V40.95C93.3217 40.75 93.5217 40.55 93.7217 40.25ZM92.1217 54.05V54.55C92.2217 54.75 92.3217 54.95 92.4217 54.85H92.9217C93.1217 54.85 93.2217 54.75 93.2217 54.45L93.1217 53.85L92.3217 53.75C92.1217 53.75 92.0217 53.85 92.1217 54.05V54.05ZM93.1217 52.95C93.2217 53.15 93.3217 53.35 93.3217 53.45L94.1217 53.35C94.1217 53.15 94.1217 53.05 94.3217 52.95C94.1217 52.55 93.9217 52.35 93.7217 52.35H93.5217C93.5217 52.45 93.3217 52.55 93.1217 52.95ZM93.1217 66.25V66.45C93.2217 66.65 93.3217 66.75 93.4217 66.75H93.9217V66.25C93.9217 66.05 93.8217 65.85 93.6217 65.95H93.4217C93.2217 65.95 93.1217 66.05 93.1217 66.25ZM93.3217 55.15V55.55C93.3217 55.75 93.5217 55.85 93.8217 56.05H94.0217C94.2217 56.05 94.3217 55.85 94.5217 55.55V55.15C94.5217 54.95 94.4217 54.85 94.1217 54.85H93.6217C93.4217 54.85 93.2217 54.95 93.3217 55.15ZM96.4217 29.55H96.6217C96.7217 29.55 97.0217 29.85 97.5217 30.35L98.3217 30.25L98.4217 30.95C98.4217 31.15 98.3217 31.35 98.1217 31.35L97.4217 31.45C97.3217 30.75 97.2217 30.45 97.0217 30.45L96.0217 30.55C95.9217 31.15 95.9217 31.55 95.9217 31.65C96.2217 31.85 96.5217 31.95 97.0217 31.85L97.1217 32.75L96.5217 32.85L95.8217 31.85H95.5217C95.3217 31.85 95.2217 32.05 95.1217 32.35V32.65C95.9217 33.05 96.3217 33.35 96.3217 33.65C96.3217 33.85 96.5217 33.95 96.8217 34.15H97.1217C97.4217 33.95 97.6217 33.65 97.5217 33.05L98.3217 32.95L98.4217 33.75C97.8217 33.85 97.5217 34.05 97.5217 34.35V34.65C98.2217 35.15 98.7217 35.65 99.2217 36.25H99.4217C99.6217 36.25 99.8217 35.85 100.022 35.05L100.722 34.95L101.922 36.55V36.75L101.222 37.85V38.35C102.022 38.45 102.322 38.55 102.422 38.75V39.25C102.422 39.35 102.122 39.65 101.322 40.05C101.322 40.55 100.922 40.95 100.122 41.35L100.222 40.45V40.25L99.0217 39.35C98.9217 38.95 98.6217 38.75 98.1217 38.75C97.4217 39.25 96.9217 40.05 96.5217 41.25H96.2217C96.0217 41.25 95.9217 41.15 95.9217 40.95L95.8217 40.25C96.4217 40.15 96.7217 39.85 96.7217 39.15V38.85L95.6217 38.95C95.5217 38.15 95.3217 37.75 95.0217 37.75H94.8217C94.6217 37.75 94.5217 37.95 94.4217 38.35L94.5217 39.05L95.6217 38.95L95.5217 39.95L94.9217 40.05C94.5217 39.45 94.2217 39.05 94.0217 39.15C93.8217 39.15 93.7217 39.05 93.6217 38.85V38.55C94.1217 37.95 94.3217 37.35 94.3217 36.55L95.1217 36.65L95.4217 36.05V35.85C94.6217 35.45 94.2217 35.05 94.2217 34.75V34.55C94.9217 34.15 95.3217 33.65 95.3217 33.25C95.1217 33.25 94.9217 33.05 94.6217 32.55C95.0217 31.85 95.2217 31.15 95.3217 30.45C95.4217 30.55 95.9217 30.25 96.4217 29.55V29.55ZM93.8217 46.65V47.15C93.9217 47.35 94.0217 47.45 94.1217 47.45H94.4217C94.5217 47.45 94.7217 47.25 94.8217 46.85V46.65C94.8217 46.45 94.6217 46.35 94.3217 46.15H94.0217C93.8217 46.35 93.7217 46.45 93.8217 46.65V46.65ZM94.1217 64.45L94.2217 65.15C94.3217 65.35 94.4217 65.55 94.6217 65.45H94.8217C95.0217 65.45 95.1217 65.25 95.2217 64.85V64.65C95.2217 64.45 95.1217 64.35 94.8217 64.35L94.1217 64.45ZM94.4217 54.35C94.7217 54.55 94.9217 54.65 95.1217 54.65C95.3217 54.55 95.4217 54.45 95.6217 54.45L95.4217 53.55H94.9217C94.6217 53.75 94.5217 53.95 94.4217 54.35V54.35ZM94.5217 56.35L94.6217 57.05L95.6217 56.95L95.5217 56.25C95.5217 56.05 95.4217 55.85 95.2217 55.95H94.9217C94.6217 55.95 94.5217 56.05 94.5217 56.35ZM95.3217 34.35C95.3217 34.55 95.3217 34.65 95.2217 34.65C95.3217 34.85 95.4217 35.05 95.4217 35.15H95.9217C96.1217 35.15 96.2217 35.05 96.2217 34.75V34.25L95.3217 34.35V34.35ZM95.4217 65.65V66.25C95.5217 66.45 95.6217 66.55 95.7217 66.55C95.9217 66.55 96.0217 66.35 96.2217 66.05C96.2217 65.85 96.1217 65.65 95.9217 65.75L95.4217 65.65ZM95.4217 36.75L95.5217 37.55H96.0217C96.2217 37.55 96.3217 37.45 96.3217 37.15V36.95C96.3217 36.75 96.2217 36.65 95.9217 36.65L95.4217 36.75V36.75ZM95.5217 54.65L95.6217 55.35C95.7217 55.55 95.8217 55.65 96.0217 55.65H96.3217C96.5217 55.65 96.6217 55.55 96.6217 55.35V54.95C96.6217 54.75 96.5217 54.65 96.3217 54.65H95.5217V54.65ZM96.5217 35.85V36.05C96.6217 36.25 96.7217 36.35 96.9217 36.35H97.4217C97.4217 36.15 97.4217 36.05 97.6217 36.05C97.5217 35.85 97.4217 35.65 97.4217 35.55H96.9217C96.6217 35.45 96.5217 35.55 96.5217 35.85ZM96.6217 38.55L97.1217 38.85H97.3217C97.5217 38.85 97.6217 38.75 97.6217 38.45L97.5217 37.75H97.0217C96.8217 37.85 96.7217 38.05 96.6217 38.55ZM97.2217 55.85L97.1217 56.25V56.55H97.6217V56.25C97.6217 55.95 97.5217 55.85 97.2217 55.85ZM97.6217 36.95V37.15C97.6217 37.35 97.8217 37.45 98.1217 37.65H98.3217C98.5217 37.65 98.6217 37.45 98.7217 37.05V36.85C98.7217 36.65 98.5217 36.55 98.2217 36.35H98.0217C97.8217 36.35 97.7217 36.55 97.6217 36.95ZM98.1217 54.95V55.45H98.4217C98.6217 55.45 98.7217 55.35 98.7217 55.15V54.95C98.7217 54.75 98.6217 54.65 98.4217 54.65C98.2217 54.65 98.1217 54.75 98.1217 54.95ZM99.5217 30.75H99.8217V31.25C99.5217 31.65 99.4217 32.05 99.4217 32.45V32.65C99.7217 32.65 100.122 32.65 100.522 32.75L100.622 33.45C99.9217 33.95 99.5217 34.35 99.5217 34.35C99.5217 34.65 99.4217 34.85 99.2217 35.05C99.0217 34.95 98.8217 34.85 98.5217 34.95L98.4217 34.05C99.0217 34.05 99.3217 33.85 99.3217 33.45L99.2217 32.75C98.5217 32.65 98.2217 32.55 98.2217 32.35L98.1217 31.55C98.8217 31.45 99.1217 31.25 99.5217 30.75V30.75ZM98.8217 38.05L99.4217 38.75C99.8217 38.55 100.022 38.35 100.022 38.15V37.95C100.022 37.75 99.8217 37.65 99.5217 37.45H99.3217C99.2217 37.45 99.0217 37.65 98.8217 38.05V38.05ZM99.8217 36.75V37.15C99.8217 37.35 100.022 37.45 100.122 37.45L100.922 37.35L100.822 36.65C100.822 36.45 100.622 36.35 100.322 36.15H100.122C100.122 36.25 100.022 36.35 99.8217 36.75ZM100.022 39.15V39.35C100.022 39.55 100.222 39.65 100.522 39.85H100.722C101.022 39.85 101.222 39.55 101.122 39.15C101.022 38.95 100.922 38.75 100.922 38.65H100.422C100.322 38.65 100.222 38.75 100.022 39.15ZM100.222 54.75V54.95C100.322 55.15 100.422 55.25 100.622 55.25H100.822C101.022 55.25 101.122 55.15 101.122 54.95V54.75C101.122 54.55 101.022 54.45 100.822 54.45H100.622C100.322 54.55 100.222 54.65 100.222 54.75ZM101.522 55.95C101.522 56.15 101.722 56.25 102.022 56.45C102.222 56.45 102.322 56.35 102.322 56.05V55.85C102.322 55.65 102.222 55.45 101.922 55.55H101.722C101.522 55.55 101.522 55.75 101.522 55.95V55.95ZM101.622 42.65C101.722 42.85 101.822 42.95 102.022 42.95H102.322V42.65C102.322 42.45 102.222 42.25 102.022 42.35C101.722 42.35 101.622 42.45 101.622 42.65ZM101.922 44.85V45.35H102.422V44.85H101.922ZM102.522 54.65V54.85C102.622 55.05 102.722 55.15 102.922 55.15C103.122 55.15 103.222 55.05 103.222 54.85V54.65C103.222 54.45 103.122 54.35 102.922 54.35C102.622 54.35 102.522 54.45 102.522 54.65ZM103.022 43.55V44.05H103.522V43.55H103.022ZM103.122 45.95V46.45H103.622V45.95H103.122ZM103.322 48.35V48.85H103.822V48.35H103.322ZM103.422 64.05V64.55H103.922V64.05H103.422ZM103.522 50.75V51.05C103.622 51.25 103.722 51.35 103.822 51.35C104.022 51.35 104.122 51.25 104.122 50.95C104.122 50.75 104.022 50.65 103.722 50.65L103.522 50.75V50.75ZM103.722 53.35V53.65H104.022C104.222 53.65 104.322 53.55 104.322 53.35C104.322 53.15 104.222 53.05 103.922 53.05C103.822 53.05 103.722 53.15 103.722 53.35V53.35ZM103.922 55.75V56.25H104.222C104.422 56.25 104.522 56.15 104.522 55.85V55.65C104.522 55.45 104.422 55.25 104.122 55.35C104.022 55.45 103.922 55.55 103.922 55.75V55.75ZM104.622 52.05V52.25C104.722 52.45 104.822 52.55 105.022 52.55C105.222 52.55 105.322 52.45 105.322 52.15V51.95C105.322 51.75 105.222 51.65 105.022 51.65C104.722 51.75 104.622 51.85 104.622 52.05ZM104.622 65.15V65.65H105.122V65.15H104.622ZM104.722 54.25V54.65C104.822 54.85 104.922 54.95 105.122 54.95H105.322C105.522 54.95 105.622 54.85 105.622 54.65C105.622 54.45 105.522 54.25 105.322 54.35L104.722 54.25V54.25ZM104.922 56.85V57.15C105.022 57.35 105.122 57.45 105.322 57.45H105.522C105.722 57.45 105.822 57.35 105.822 57.05V56.75C105.822 56.55 105.722 56.45 105.522 56.45H105.322C105.022 56.55 104.922 56.65 104.922 56.85ZM105.622 63.85V64.35H106.122V63.85H105.622ZM106.022 55.55V55.75C106.122 55.95 106.222 56.15 106.322 56.05H106.522C106.722 56.05 106.822 55.95 106.822 55.65C106.822 55.45 106.622 55.35 106.322 55.15C106.122 55.25 106.022 55.35 106.022 55.55ZM106.022 57.95C106.122 58.15 106.222 58.35 106.222 58.45L107.022 58.35C107.022 58.15 107.022 58.05 107.122 58.05C106.922 57.55 106.722 57.35 106.522 57.35H106.322C106.422 57.45 106.222 57.65 106.022 57.95ZM106.322 60.35V60.65H106.822C107.022 60.65 107.122 60.55 107.122 60.35C107.122 60.15 107.022 59.95 106.722 60.05H106.522C106.422 60.05 106.322 60.15 106.322 60.35V60.35ZM106.722 62.75V63.05H107.022C107.222 63.05 107.322 62.95 107.322 62.65C107.322 62.45 107.222 62.25 106.922 62.35C106.822 62.45 106.722 62.55 106.722 62.75V62.75ZM106.922 65.05V65.55H107.422V65.05H106.922ZM107.422 59.05V59.25C107.522 59.45 107.622 59.55 107.822 59.55C108.022 59.55 108.122 59.45 108.122 59.15V58.95C108.122 58.75 108.022 58.65 107.822 58.65C107.522 58.75 107.422 58.95 107.422 59.05ZM107.622 61.65C107.722 61.85 107.822 61.95 108.022 61.95H108.222C108.422 61.95 108.522 61.85 108.522 61.55V61.35C108.522 61.15 108.422 61.05 108.222 61.05C107.922 61.15 107.722 61.35 107.622 61.65V61.65ZM107.922 63.85V64.15H108.222C108.422 64.15 108.522 64.05 108.522 63.75C108.522 63.55 108.422 63.45 108.222 63.45C108.022 63.55 107.922 63.75 107.922 63.85ZM108.822 62.65V62.85C108.922 63.05 109.022 63.15 109.122 63.15H109.422V62.65C109.422 62.45 109.322 62.25 109.122 62.35C108.922 62.25 108.822 62.45 108.822 62.65ZM109.122 64.85V65.35H109.622V64.85H109.122ZM110.022 63.55V64.05L110.722 63.95V63.45L110.022 63.55ZM111.422 64.65V65.15H111.922V64.65H111.422ZM112.422 63.35V63.85H112.922V63.35H112.422ZM113.622 64.55V65.05H114.122V64.55H113.622ZM120.922 28.85C120.922 29.15 121.222 29.35 121.622 29.25C121.922 29.05 122.322 28.85 122.622 28.85L123.822 29.05C123.922 29.05 124.322 28.95 125.122 28.75C125.222 28.75 125.622 28.85 126.322 28.95C126.822 28.55 127.222 28.35 127.422 28.35C128.122 28.55 128.522 28.55 128.822 28.55C129.222 28.35 129.622 28.15 129.922 28.15C130.422 28.35 130.822 28.45 131.122 28.35L131.922 28.15C132.522 28.25 133.022 28.25 133.522 28.15H134.022C134.222 28.15 134.322 28.25 134.322 28.45L134.222 29.25H134.422C134.622 29.25 134.722 29.05 134.722 28.75H135.222C135.922 28.65 136.822 29.25 138.022 30.35C138.622 30.35 138.922 30.65 138.922 31.25H139.122L139.922 31.05C140.022 31.95 140.322 32.55 141.022 32.75C142.222 34.25 142.822 35.25 142.922 35.75L142.822 36.75C143.422 36.75 144.022 37.45 144.622 38.95L144.222 39.85V40.05C144.922 40.55 145.322 41.05 145.322 41.45L144.422 42.15V42.35L145.422 42.95V43.45C145.422 43.55 145.122 43.85 144.522 44.55V44.75L145.422 45.65V45.85C145.422 45.95 145.122 46.25 144.522 46.95V47.25L145.422 48.15V48.45L144.822 49.15V49.35L145.722 50.15C145.122 51.05 144.822 51.85 144.722 52.55L143.922 52.65V53.15L144.322 53.55V54.05L143.622 55.95C143.022 55.95 142.822 56.15 142.822 56.35L143.422 57.15V57.35C143.522 58.05 142.322 59.45 140.122 61.55L139.422 61.65C139.422 61.35 139.322 61.15 139.022 61.25H138.722L138.822 61.85H139.122V62.15C139.122 62.35 139.022 62.45 138.622 62.65L138.122 62.35H137.822C137.522 63.05 137.122 63.35 136.722 63.45C136.122 63.45 135.722 63.65 135.422 63.85L134.522 63.55C134.422 63.55 134.122 63.75 133.522 64.25H133.222C132.722 63.85 132.322 63.65 132.022 63.65C131.922 63.65 131.622 63.85 131.022 64.35H130.722L130.022 63.95H129.522C129.022 64.35 128.722 64.55 128.722 64.65C127.922 64.15 127.422 63.95 127.322 63.95L126.522 64.55C126.322 64.55 125.822 64.45 125.022 64.15C124.422 64.65 123.922 64.95 123.622 64.95C123.622 64.75 123.422 64.65 123.122 64.45H122.622L122.022 65.05H121.722C121.122 64.65 120.822 64.45 120.722 64.45C120.622 64.45 120.222 64.75 119.622 65.35H119.422C119.322 65.35 119.122 65.15 118.522 64.75H118.022L117.422 65.35C116.522 64.95 116.022 64.45 116.022 63.85C116.222 63.05 116.622 62.65 117.222 62.65L117.922 63.05H118.222C118.822 62.15 119.522 61.65 120.422 61.55C120.622 61.55 120.922 61.65 121.422 61.75C122.422 60.95 122.922 60.25 122.922 59.85C122.822 59.65 122.722 59.45 122.722 59.35L123.022 59.15L123.422 59.25C123.622 59.15 123.822 59.05 123.922 59.05V58.75C123.222 58.35 122.922 58.15 122.922 57.95V57.65C122.922 57.55 123.222 57.25 123.822 56.55V56.05L123.322 55.45V55.25C123.722 54.75 123.922 54.35 123.922 54.05C123.922 53.95 123.722 53.65 123.222 53.15V52.95C123.622 52.35 123.822 52.05 123.822 51.95C123.822 51.85 123.522 51.45 122.922 50.85V50.65C123.322 50.15 123.522 49.85 123.522 49.75V49.25L123.022 48.65C123.022 48.25 123.122 47.85 123.422 47.45V46.95L122.722 46.15V45.95C122.722 45.85 122.922 45.65 123.322 45.05V44.55C123.322 44.45 123.122 44.25 122.622 43.75V43.55L123.222 42.65V42.15L122.522 41.35V41.15L123.122 40.25V39.95C122.422 39.65 122.022 38.85 121.622 37.55L121.722 37.15L121.622 36.15C121.622 36.05 121.722 35.25 121.922 33.85C121.822 33.15 121.022 32.85 119.322 32.75C119.122 32.45 118.922 32.15 118.922 31.95H118.622C118.522 31.95 118.322 32.15 117.822 32.65H117.322C116.822 32.25 116.522 32.05 116.322 32.05C116.222 32.05 115.822 32.15 115.022 32.35C114.622 32.35 114.122 32.05 113.622 31.45V31.15C114.122 29.95 114.522 29.25 114.822 29.25C115.722 28.95 116.222 28.85 116.422 28.85C116.822 29.05 117.122 29.15 117.422 29.05L118.522 28.65L119.722 28.85C119.722 29.25 120.222 29.05 120.922 28.85V28.85ZM117.022 63.75V64.25H117.522V63.75H117.022ZM119.322 63.65V64.15H119.822V63.65H119.322ZM120.322 62.35V62.85H120.822V62.35H120.322ZM121.622 63.45V63.95H122.122V63.45H121.622ZM122.022 38.05V38.55H122.522V38.05H122.022ZM122.522 29.85V30.35H123.022V29.85H122.522ZM122.622 62.25V62.75H123.122V62.25H122.622ZM122.722 32.15V32.65H123.222V32.15H122.722ZM122.822 34.45V34.95H123.322V34.45H122.822ZM123.022 36.75V37.25H123.522V36.75H123.022ZM123.222 39.05V39.55H123.722V39.05H123.222ZM123.422 41.35V41.85H123.922V41.35H123.422ZM123.622 43.65V44.15H124.122V43.65H123.622ZM123.722 30.95V31.45H124.222V30.95H123.722ZM123.722 45.95V46.45H124.222V45.95H123.722ZM123.722 60.95V61.45H124.222V60.95H123.722ZM123.922 33.25V33.75H124.422V33.25H123.922ZM123.922 48.25V48.75H124.422V48.25H123.922ZM123.922 63.25V63.75H124.422V63.25H123.922ZM124.122 50.55V51.05H124.622V50.55H124.122ZM124.122 35.65V35.85C125.022 36.25 125.522 37.05 125.622 38.05C125.622 39.35 125.222 40.05 124.422 40.15V40.65L125.622 40.55V40.75C125.622 40.85 125.622 41.05 125.522 41.45C125.522 41.55 125.722 41.85 126.222 42.35V42.85L125.822 43.55V44.05C126.322 44.55 126.522 44.75 126.522 44.85V45.05C126.122 45.55 125.822 46.15 125.622 46.95C125.022 46.95 124.822 47.15 124.822 47.35V47.55C125.822 48.15 126.422 48.85 126.522 49.75C126.222 50.75 125.822 51.55 125.222 51.95V52.15L125.922 52.75L126.022 53.55L125.422 54.25V54.55C125.522 54.55 125.722 54.55 125.922 54.65C126.122 54.55 126.322 54.45 126.422 54.45C126.422 54.55 126.522 54.55 126.622 54.55L126.522 55.35C126.522 55.45 126.722 55.75 127.222 56.25V56.45C126.822 56.95 126.622 57.35 126.622 57.65C126.822 57.95 127.022 58.35 127.022 58.55C127.122 59.15 127.022 59.55 126.822 59.55L127.322 60.15L128.022 59.95C129.622 59.85 130.522 60.15 130.622 60.85H131.122L131.922 60.15H132.122C132.622 60.55 132.922 60.75 133.022 60.75H133.322C133.622 60.05 134.222 59.55 135.022 59.25C136.022 58.35 136.622 57.85 137.122 57.75C137.222 57.95 137.322 58.05 137.422 58.05H137.922L137.822 57.35L137.622 57.05C137.822 56.95 138.022 56.85 138.122 56.85L138.522 56.95C138.822 56.85 139.022 56.75 138.922 56.55C138.922 56.45 138.822 56.05 138.622 55.25C138.822 55.15 139.422 54.15 140.322 52.15C140.522 52.15 140.722 51.95 140.922 51.65C140.722 51.25 140.522 50.85 140.522 50.55C140.622 49.25 141.022 48.55 141.622 48.45V48.15C140.922 47.85 140.622 47.55 140.522 47.25C140.522 47.15 140.922 46.65 141.622 45.85L141.022 44.95C141.222 44.25 141.222 43.75 141.222 43.45L140.522 42.65V42.35C140.522 42.25 140.722 41.95 141.122 41.45V41.25C140.322 40.95 139.922 40.05 139.822 38.75L139.722 37.95C139.022 37.45 138.222 36.45 137.322 34.95C137.222 34.75 137.122 34.55 137.122 34.35L137.022 33.35L136.322 33.45C135.622 33.55 134.522 33.15 132.922 32.35C132.522 32.35 132.322 32.05 132.222 31.45H131.922L131.122 32.15H130.622C130.522 32.15 130.222 31.95 129.722 31.55H129.522C129.422 31.55 129.222 31.75 128.722 32.25H128.222L127.322 31.65H127.122L125.222 33.05C125.022 34.35 124.622 35.15 124.022 35.15C124.222 35.35 124.122 35.55 124.122 35.65V35.65ZM124.222 37.85V38.35H124.722V37.85H124.222V37.85ZM124.222 52.85V53.35H124.722V52.85H124.222ZM124.422 55.15V55.65H124.922V55.15H124.422ZM124.622 42.45V42.95H125.122V42.45H124.622ZM124.622 57.45V57.95H125.122V57.45H124.622ZM124.822 44.75V45.25H125.322V44.75H124.822ZM124.822 59.75V60.25H125.322V59.75H124.822ZM125.022 62.05V62.55H125.522V62.05H125.022ZM125.022 31.95V32.45H125.522V31.95H125.022ZM125.122 49.25V49.75H125.622V49.25H125.122ZM125.622 56.25V56.75H126.122V56.25H125.622ZM125.822 58.55V59.05H126.322V58.55H125.822ZM126.022 60.75V61.25H126.522V60.75H126.022ZM126.022 30.75V31.25H126.522V30.75H126.022ZM126.222 63.05V63.55H126.722V63.05H126.222ZM127.122 29.55V30.05H127.622V29.55H127.122ZM127.322 61.85V62.35H127.822V61.85H127.322ZM128.322 60.65V61.15H128.822V60.65H128.322V60.65ZM128.322 30.55V31.05H128.822V30.55H128.322V30.55ZM128.522 62.95V63.45H129.022V62.95H128.522ZM129.422 29.35V29.85H129.922V29.35H129.422ZM129.622 61.65V62.15H130.122V61.65H129.622ZM130.622 30.35V30.85H131.122V30.35H130.622ZM130.822 62.75V63.25H131.322V62.75H130.822ZM131.722 29.15V29.65H132.222V29.15H131.722ZM131.822 61.55V62.05H132.322V61.55H131.822ZM132.922 30.25V30.75H133.422V30.25H132.922ZM133.122 62.55V63.05H133.622V62.55H133.122ZM134.122 61.35V61.85H134.622V61.35H134.122ZM134.222 31.35V31.85H134.722V31.35H134.222ZM135.222 30.05V30.55H135.722V30.05H135.222ZM135.222 60.05V60.55H135.722V60.05H135.222ZM135.422 62.35V62.85H135.922V62.35H135.422ZM136.322 58.85V59.35H136.822V58.85H136.322ZM136.522 61.15V61.65H137.022V61.15H136.522ZM136.522 31.15V31.65H137.022V31.15H136.522ZM137.522 59.95V60.45H138.022V59.95H137.522ZM137.722 32.15V32.65H138.222V32.15H137.722ZM138.622 58.65V59.15H139.122V58.65H138.622ZM138.922 33.25V33.75H139.422V33.25H138.922ZM139.122 35.55V36.05H139.622V35.55H139.122ZM139.522 55.15V55.65H140.022V55.15H139.522ZM139.622 57.45V57.75C139.722 57.95 139.822 58.05 139.922 58.05C140.122 58.05 140.222 57.95 140.222 57.75C140.222 57.55 140.122 57.45 139.822 57.45H139.622V57.45ZM139.822 59.75V60.25H140.322V59.75H139.822ZM140.222 34.35V34.85H140.722V34.35H140.222ZM140.322 36.65V37.15H140.822V36.65H140.322ZM140.522 53.95V54.25C140.622 54.45 140.722 54.55 140.922 54.55C141.122 54.55 141.222 54.45 141.222 54.25C141.222 54.05 141.122 53.95 140.922 53.95H140.522ZM140.522 38.85V39.35H141.022V38.85H140.522ZM140.722 56.35V56.55C140.822 56.75 140.922 56.85 141.122 56.85C141.322 56.85 141.422 56.75 141.422 56.55V56.35C141.422 56.15 141.322 56.05 141.122 56.05C140.822 56.05 140.722 56.15 140.722 56.35ZM140.722 58.65C140.822 58.85 140.922 58.95 141.122 58.95H141.322C141.522 58.95 141.622 58.85 141.622 58.55C141.622 58.35 141.522 58.25 141.322 58.25H141.122C140.822 58.35 140.722 58.55 140.722 58.65ZM141.422 35.35V35.85H141.922V35.35H141.422ZM141.422 50.35V50.85H141.922V50.35H141.422ZM141.622 37.65V38.15H142.122V37.65H141.622V37.65ZM141.622 52.65V52.95C141.722 53.15 141.822 53.25 141.922 53.25C142.122 53.25 142.222 53.15 142.222 52.85C142.222 52.65 142.122 52.55 141.822 52.55L141.622 52.65V52.65ZM141.622 55.05V55.35C141.722 55.55 141.822 55.65 141.922 55.65H142.122C142.322 55.65 142.422 55.45 142.622 55.15V54.65L141.922 54.75C141.722 54.65 141.622 54.75 141.622 55.05V55.05ZM141.822 39.95V40.45H142.322V39.95H141.822ZM141.822 57.45V57.65C141.922 57.85 142.022 57.95 142.122 57.95C142.322 57.95 142.422 57.85 142.422 57.65V57.45C142.422 57.25 142.322 57.15 142.122 57.15C141.922 57.15 141.822 57.25 141.822 57.45ZM141.922 42.25V42.75H142.422V42.25H141.922ZM142.122 44.55V45.05H142.622V44.55H142.122ZM142.322 46.85V47.35H142.822V46.85H142.322ZM142.522 49.35V49.65H142.822C143.022 49.65 143.122 49.55 143.122 49.35C143.122 49.15 143.022 49.05 142.822 49.05C142.622 49.05 142.522 49.15 142.522 49.35ZM142.522 54.25C142.722 54.25 142.822 54.35 142.822 54.55C143.022 54.45 143.222 54.35 143.322 54.35V53.85C143.322 53.65 143.222 53.55 142.922 53.55C142.822 53.55 142.622 53.85 142.522 54.25ZM142.622 51.45V51.95H143.122V51.45H142.622ZM142.822 38.75V39.25H143.322V38.75H142.822ZM143.022 41.05V41.55H143.522V41.05H143.022ZM143.222 43.35V43.85H143.722V43.35H143.222ZM143.422 45.65V45.95C143.522 46.15 143.622 46.25 143.722 46.25C143.922 46.25 144.022 46.15 144.022 45.95C144.022 45.75 143.922 45.65 143.722 45.65H143.422ZM143.422 48.25C143.522 48.45 143.622 48.55 143.822 48.55C144.022 48.55 144.122 48.35 144.222 48.05C144.222 47.85 144.122 47.75 143.922 47.75C143.722 47.75 143.522 47.95 143.422 48.25ZM143.722 50.25V50.75H144.222V50.25H143.722ZM176.722 39.35C176.622 37.85 176.222 35.75 175.622 32.95C175.522 32.55 175.422 32.15 175.422 31.75C175.422 31.55 175.322 31.35 175.322 31.15V30.85C175.222 30.55 175.222 30.25 175.322 30.05L175.222 28.95C175.022 28.15 174.922 27.35 174.622 26.65C174.222 26.45 173.622 25.85 172.722 25.05C171.822 24.55 170.322 24.25 168.122 24.15L167.522 24.25C165.922 24.55 165.122 24.75 165.022 24.75L157.422 25.35C157.122 25.35 156.622 25.25 156.022 25.15C155.722 25.15 155.022 25.35 154.122 25.75C153.322 25.85 152.522 25.75 151.822 25.45C151.422 25.55 151.222 25.65 151.222 25.65L150.422 25.55C149.422 25.95 148.522 26.65 147.822 27.65C147.822 29.15 147.722 30.05 147.522 30.45C147.822 30.85 147.922 31.25 147.922 31.65L148.022 32.95C147.822 34.15 147.622 35.85 147.622 37.85L147.822 39.95C147.822 40.45 147.822 40.85 147.622 41.25C148.422 43.45 149.122 44.55 149.822 44.45C151.122 43.65 152.022 42.95 152.522 42.45C152.622 42.35 152.722 42.35 152.822 42.25V41.95C152.822 41.65 152.822 41.45 152.922 41.25C152.822 40.95 152.622 40.55 152.322 40.15C152.322 37.25 152.322 35.55 152.222 34.95C152.522 32.35 153.422 30.95 154.822 30.85L156.322 31.65C156.622 31.65 157.022 31.55 157.622 31.45C157.922 31.65 158.122 31.75 158.122 31.95V32.15C158.122 32.45 158.022 32.95 157.722 33.65C157.822 34.15 158.022 34.45 158.122 34.45C158.422 36.75 158.722 38.25 158.922 38.75C159.022 39.45 159.022 40.25 158.922 41.15L159.522 42.85L159.422 43.85L159.822 45.45C159.822 45.65 159.722 46.35 159.522 47.55C159.622 48.75 159.722 49.75 159.922 50.75C159.822 53.65 159.722 55.15 159.822 55.45C159.922 57.15 159.422 58.05 158.122 58.15H157.622C156.922 58.25 156.122 58.25 155.222 58.15C155.022 58.15 154.922 58.15 154.722 58.25C154.522 58.25 154.322 58.35 154.122 58.35C152.522 58.65 151.722 59.45 151.822 60.75L151.922 61.55C152.022 62.75 153.122 63.45 155.122 63.55C157.122 63.55 158.422 63.55 159.022 63.75C159.922 63.45 160.422 63.35 160.622 63.35L162.722 63.15C163.022 63.15 163.722 63.25 164.822 63.45C165.622 63.05 166.022 62.85 166.222 62.85C166.522 62.85 166.922 62.85 167.322 62.95C168.322 62.75 169.322 62.65 170.222 62.55L171.022 62.45C171.522 62.45 171.922 62.45 172.322 62.65C173.422 62.55 174.022 61.55 174.322 59.45C174.222 57.95 172.522 56.85 169.422 56.15C168.022 56.65 167.322 56.95 167.022 56.95H166.822C165.722 57.05 165.022 56.35 164.722 54.95L164.522 51.75C164.622 50.65 164.722 50.05 164.722 49.95L164.522 47.25C164.222 46.25 164.122 45.65 164.122 45.45L164.022 44.85C164.022 44.35 164.022 43.95 164.222 43.55C164.222 43.25 164.022 42.85 163.822 42.45C163.922 41.55 164.022 41.05 164.022 40.85V40.65C164.022 40.35 163.822 39.85 163.622 39.25C163.622 39.05 163.722 38.35 164.122 37.15C163.622 36.05 163.322 35.35 163.322 35.25C163.322 34.95 163.322 34.75 163.422 34.75C163.322 32.75 163.722 31.45 164.722 30.85C164.922 30.75 166.622 30.55 169.722 30.35H170.022C170.622 30.25 171.222 33.45 171.622 39.65C171.822 41.85 173.122 43.15 175.622 43.45C176.422 43.35 176.922 42.85 177.022 41.85L176.722 39.35Z" fill="#E3CCB9"/><path d="M221.122 56.15C220.922 56.15 220.722 56.25 220.322 56.55C220.622 56.95 221.122 57.15 221.622 57.05H221.822V56.85C221.822 56.85 221.622 56.55 221.122 56.15V56.15Z" fill="#231F20"/><path d="M216.022 56.45V56.25L216.322 55.75V55.55C216.322 55.05 216.122 54.75 215.922 54.75C215.822 53.65 213.922 53.25 210.222 53.55C210.022 52.75 209.722 52.35 209.322 52.35C209.222 51.65 209.322 51.15 209.422 51.05C209.422 50.75 209.122 50.25 208.722 49.65C208.922 48.95 208.922 48.55 208.922 48.55C208.922 48.25 208.722 47.85 208.522 47.45L208.622 46.75C208.522 45.55 208.122 44.75 207.322 44.25C207.322 43.85 206.922 43.05 206.322 41.55V41.35C206.222 40.45 207.122 39.45 209.022 38.25C209.222 37.85 209.422 37.55 209.622 37.15C210.222 36.05 210.622 35.05 210.922 34.45C211.122 33.85 211.322 33.45 211.322 33.25L211.022 32.15C211.222 31.85 211.422 31.15 211.522 30.15C211.022 28.95 210.622 27.95 210.422 27.15C210.622 27.05 210.722 27.05 210.922 26.95V26.85C210.822 26.95 210.622 26.95 210.522 27.05H210.422C210.322 26.65 210.322 26.35 210.322 26.05C207.722 23.55 206.322 22.25 205.822 22.35C205.622 22.35 205.422 22.55 205.022 22.95H204.722C204.522 22.95 204.422 22.85 204.322 22.45C204.322 22.15 203.622 21.85 202.122 21.45L201.522 21.95H201.022C201.022 21.45 200.822 21.05 200.622 20.85H200.422C199.922 20.85 199.422 21.25 199.022 22.05H198.822C198.322 21.45 198.022 21.15 197.922 21.15H197.422L196.522 22.35C195.922 21.75 195.522 21.45 195.522 21.45H195.222C195.122 21.45 194.922 21.75 194.422 22.25H194.122C194.122 21.65 193.322 21.25 191.922 21.15C191.922 21.25 191.622 21.45 191.022 21.55C190.822 21.55 190.422 21.45 189.822 21.15C189.622 21.15 189.122 21.35 188.622 21.75L187.822 21.65L186.422 21.95L185.222 21.85L185.322 22.05C185.022 22.05 184.622 21.95 184.222 21.85C182.922 22.55 182.222 23.25 182.322 24.05C182.422 25.35 183.522 26.35 185.622 27.25C185.722 27.25 185.722 27.15 185.722 26.95C185.922 26.95 186.322 27.05 186.722 27.35C187.622 28.65 188.122 29.35 188.222 29.35C188.222 29.65 188.022 30.35 187.522 31.35C187.822 32.95 188.122 33.95 188.422 34.55C188.222 34.95 188.122 35.45 188.222 35.85L188.322 37.75C188.022 38.95 187.822 39.75 187.922 40.05V40.25C187.922 40.75 188.122 41.15 188.322 41.55C188.322 41.75 188.222 42.15 188.122 42.85C188.122 43.45 188.322 43.95 188.522 44.25C188.322 44.75 188.322 45.05 188.322 45.25C188.322 45.55 188.522 45.95 188.722 46.35C188.522 46.85 188.522 47.15 188.522 47.35L188.822 48.75C188.822 48.85 188.722 49.15 188.522 49.75L188.922 50.85L188.722 51.95C188.722 52.05 188.922 52.65 189.222 53.75L188.322 54.95C188.122 55.15 187.022 55.45 185.122 56.05C185.022 56.05 184.822 55.85 184.222 55.45H183.922C183.422 55.45 182.922 55.85 182.422 56.65H182.122L181.322 56.55L181.422 57.15H181.722L181.822 57.75H181.522V58.05L182.522 58.25C182.722 58.65 183.022 59.05 183.622 59.55C184.722 59.65 185.922 60.05 187.122 60.75C187.622 60.65 188.522 60.15 189.622 59.45C190.322 59.65 190.722 59.65 190.722 59.65C191.022 59.65 191.422 59.45 191.822 59.25C191.922 59.25 192.222 59.45 192.822 59.85H193.322C193.822 59.35 194.122 59.15 194.222 59.15C194.222 59.25 194.522 59.45 195.122 59.75H195.622C196.122 59.25 196.422 59.05 196.522 59.05C197.022 59.25 197.322 59.25 197.522 59.25C197.822 59.25 198.222 59.05 198.622 58.85L199.422 58.95C199.522 58.95 199.622 58.85 199.922 58.55L199.722 57.75V57.55H199.922C200.422 57.55 200.722 57.45 200.722 57.25C201.422 56.85 201.822 56.65 201.822 56.55V56.05L201.422 55.65C200.622 55.65 199.822 55.35 199.122 54.85L198.822 55.05C198.622 55.05 198.322 54.85 197.922 54.45L196.622 54.55L195.022 54.85C194.422 54.45 194.022 53.95 193.822 53.55C193.722 52.75 194.122 52.25 194.822 52.15L194.722 51.55C193.922 51.45 193.522 51.25 193.522 50.65C193.522 50.45 193.622 49.85 193.922 49.05L193.522 48.45C193.522 48.25 193.622 47.95 193.922 47.65L193.822 46.85C193.622 46.55 193.422 46.35 193.322 46.35C193.322 46.05 193.322 45.45 193.522 44.35C193.422 43.05 194.122 42.35 195.422 42.25H196.522V42.45C197.022 42.45 197.722 42.35 198.622 42.15C198.822 42.15 199.522 42.45 200.922 43.05C201.722 42.95 202.522 44.05 203.622 46.05V47.65C203.622 47.75 203.722 48.05 203.822 48.55C203.622 49.25 203.622 49.65 203.622 49.65C203.622 49.95 203.822 50.35 204.022 50.75L203.822 52.45C203.822 52.75 203.922 53.05 204.222 53.45C204.222 53.75 204.022 54.05 203.622 54.65C203.622 55.25 204.222 55.95 205.422 56.75C205.622 57.25 206.022 57.85 206.722 58.55L207.622 58.35C207.922 58.35 208.422 58.45 209.322 58.85C209.522 58.85 209.722 58.75 209.922 58.45H210.222C210.222 58.55 210.822 58.75 212.022 58.95C213.122 58.85 213.922 58.55 214.422 57.95C214.922 58.45 215.222 58.75 215.322 58.65H215.822C216.822 57.75 217.322 57.05 217.222 56.45C216.622 56.55 216.422 56.55 216.022 56.45V56.45ZM182.722 24.65V24.15H183.222V24.65H182.722ZM187.222 22.75H187.722V23.25H187.222V22.75ZM187.422 25.45V24.95H187.922V25.45H187.422ZM188.522 24.25V23.75H189.022V24.25H188.522ZM189.522 22.55H190.022V23.05H189.522V22.55ZM189.622 25.25V24.75H190.122V25.25H189.622ZM205.022 26.95V27.45H204.522V27.35C204.622 27.35 204.722 27.25 204.822 27.15C204.822 27.15 204.722 27.15 204.522 27.25V26.85L205.022 26.95V26.95ZM203.822 26.45H203.322V25.95H203.822V26.45ZM203.622 23.75V24.25H203.122V23.75H203.622ZM202.622 25.35H202.122V24.85H202.622V25.35ZM202.422 22.65V23.15H201.922V22.65H202.422ZM201.322 23.85V24.35H200.822V23.85H201.322ZM200.322 25.55H199.822V25.05H200.322V25.55ZM200.122 22.85V23.35H199.622V22.85H200.122ZM199.122 24.05V24.55H198.622V24.05H199.122ZM198.122 25.75H197.622V25.25H198.122V25.75ZM197.922 23.05V23.55H197.422V23.05H197.922ZM196.822 24.25V24.75H196.322V24.25H196.822ZM195.822 25.95H195.322V25.45H195.822V25.95ZM195.522 23.05C195.722 23.05 195.822 23.15 195.822 23.35C195.822 23.55 195.722 23.65 195.522 23.75H195.222V23.45C195.222 23.25 195.322 23.05 195.522 23.05ZM194.622 24.35V24.85H194.122V24.35H194.622ZM193.622 26.05H193.122V25.55H193.622V26.05ZM193.422 23.35V23.85H192.922V23.35H193.422ZM192.422 25.05H191.922V24.55H192.422V25.05ZM192.222 22.35V22.85H191.722V22.35H192.222ZM190.622 23.55H191.122V24.05H190.622V23.55ZM190.822 25.85H191.322V26.35H190.822V25.85ZM191.022 28.05H191.522V28.55H191.022V28.05ZM193.022 39.35V38.85H193.522V39.35H193.022ZM200.722 37.45C200.622 37.45 200.622 37.45 200.722 37.45L200.622 37.25H200.722C200.522 37.35 200.322 37.35 200.122 37.35C200.122 37.55 200.222 37.65 200.222 37.75C200.122 37.75 200.122 37.85 200.022 37.85H199.822L198.722 37.65C198.322 37.65 198.022 37.85 197.622 38.25H197.422L196.622 37.85C196.322 37.85 195.922 38.05 195.322 38.45C194.722 38.45 194.222 38.55 193.922 38.55C193.022 38.65 192.322 37.45 191.922 35.15L192.522 34.25C192.522 34.15 192.422 33.95 192.322 33.75C192.422 33.75 192.522 33.45 192.622 32.75C192.622 32.55 192.522 32.45 192.422 32.45C192.322 31.25 191.922 30.75 191.122 30.75V30.25H191.322L192.122 30.35C192.122 30.25 192.222 30.15 192.322 30.15L192.022 29.05L192.422 27.45V27.25H192.122V26.75H192.622C192.622 26.85 192.722 27.05 192.822 27.25C193.022 27.25 193.622 26.95 194.522 26.45C194.822 26.45 195.222 26.55 195.622 26.65C195.822 26.65 196.222 26.45 196.922 26.25L197.922 26.65C198.122 26.65 198.522 26.45 199.022 26.05C199.122 26.05 199.622 26.25 200.422 26.75C200.422 26.65 200.622 26.45 201.122 26.05H201.622C202.722 26.95 203.322 27.45 203.322 27.55C203.522 27.55 203.722 27.65 203.822 27.75C203.722 27.75 203.722 27.85 203.622 27.85C203.722 27.85 203.722 27.75 203.822 27.75C204.722 28.05 205.122 28.75 205.222 29.65V29.75L205.122 29.85V30.25C205.222 30.25 205.222 30.15 205.322 30.15L205.422 31.45C205.522 33.15 203.922 35.15 200.722 37.45V37.45Z" fill="#E3CCB9"/><path d="M216.822 57.25V57.05L217.122 56.55V56.35C217.122 55.85 216.922 55.55 216.722 55.55C216.622 54.45 214.722 54.05 211.022 54.35C210.822 53.55 210.522 53.15 210.122 53.15C210.022 52.35 210.122 51.95 210.222 51.85C210.222 51.55 209.922 51.05 209.522 50.45C209.722 49.75 209.722 49.35 209.722 49.35C209.722 49.05 209.522 48.65 209.322 48.25L209.422 47.55C209.322 46.35 208.922 45.55 208.122 45.05C208.122 44.65 207.722 43.85 207.122 42.35V42.15C207.022 41.25 207.922 40.25 209.822 39.05C210.022 38.65 210.222 38.35 210.422 37.95C211.022 36.85 211.422 35.85 211.722 35.25C211.922 34.65 212.122 34.25 212.122 34.05L211.822 32.95C212.022 32.65 212.222 31.95 212.322 30.95C211.822 29.85 211.422 28.85 211.222 28.05L210.322 26.55C210.222 26.35 210.222 26.25 210.122 26.05C208.122 24.15 206.922 23.15 206.522 23.15C206.322 23.15 206.122 23.35 205.722 23.75H205.422C205.222 23.75 205.122 23.65 205.022 23.25C205.022 22.95 204.322 22.65 202.822 22.25L202.222 22.75H201.722C201.722 22.25 201.522 21.85 201.322 21.65H201.122C200.622 21.65 200.122 22.05 199.722 22.85H199.522C199.022 22.25 198.722 21.95 198.622 21.95H198.122L197.222 23.15C196.622 22.55 196.222 22.25 196.222 22.25H195.922C195.822 22.25 195.622 22.55 195.122 23.05H194.822C194.822 22.45 194.022 22.05 192.622 21.95C192.622 22.05 192.322 22.25 191.722 22.35C191.522 22.35 191.122 22.25 190.522 21.95C190.322 21.95 189.822 22.15 189.322 22.55L188.522 22.45L187.122 22.75L185.922 22.65L186.022 22.85C185.722 22.85 185.322 22.75 184.922 22.65C183.622 23.35 182.922 24.05 183.022 24.85C183.122 26.15 184.222 27.15 186.322 28.05C186.422 28.05 186.422 27.95 186.422 27.75C186.622 27.75 187.022 27.85 187.422 28.15C188.322 29.45 188.822 30.15 188.922 30.15C188.922 30.45 188.722 31.15 188.222 32.15C188.522 33.75 188.822 34.75 189.122 35.35C188.922 35.75 188.822 36.25 188.922 36.65L189.022 38.55C188.722 39.75 188.522 40.55 188.622 40.85V41.05C188.622 41.55 188.822 41.95 189.022 42.35C189.022 42.55 188.922 42.95 188.822 43.65C188.822 44.25 189.022 44.75 189.222 45.05C189.022 45.55 189.022 45.85 189.022 46.05C189.022 46.35 189.222 46.75 189.422 47.15C189.222 47.65 189.222 47.95 189.222 48.15L189.522 49.55C189.522 49.65 189.422 49.95 189.222 50.55L189.622 51.65L189.422 52.75C189.422 52.85 189.622 53.45 189.922 54.55L189.022 55.75C188.822 55.95 187.722 56.25 185.822 56.85C185.722 56.85 185.522 56.65 184.922 56.25H184.622C184.122 56.25 183.622 56.65 183.122 57.45H182.822L182.022 57.35L182.122 57.95H182.422L182.522 58.55H182.222V58.85L183.222 59.05C183.422 59.45 183.722 59.85 184.322 60.35C185.422 60.45 186.622 60.85 187.822 61.55C188.322 61.45 189.222 60.95 190.322 60.25C191.022 60.45 191.422 60.45 191.422 60.45C191.722 60.45 192.122 60.25 192.522 60.05C192.622 60.05 192.922 60.25 193.522 60.65H194.022C194.522 60.15 194.822 59.95 194.922 59.95C194.922 60.05 195.222 60.25 195.822 60.55H196.322C196.822 60.05 197.122 59.85 197.222 59.85C197.722 60.05 198.022 60.05 198.222 60.05C198.522 60.05 198.922 59.85 199.322 59.65L200.122 59.75C200.222 59.75 200.322 59.65 200.622 59.35L200.422 58.55V58.35H200.622C201.122 58.35 201.422 58.25 201.422 58.05C202.122 57.65 202.522 57.45 202.522 57.35V56.85L202.122 56.45C201.322 56.45 200.522 56.15 199.822 55.65L199.522 55.85C199.322 55.85 199.022 55.65 198.622 55.25L197.322 55.35L195.722 55.65C195.122 55.25 194.722 54.75 194.522 54.35C194.422 53.55 194.822 53.05 195.522 52.95L195.422 52.35C194.622 52.25 194.222 52.05 194.222 51.45C194.222 51.25 194.322 50.65 194.622 49.85L194.222 49.25C194.222 49.05 194.322 48.75 194.622 48.45L194.522 47.65C194.322 47.35 194.122 47.15 194.022 47.15C194.022 46.85 194.022 46.25 194.222 45.15C194.122 43.85 194.822 43.15 196.122 43.05H197.222V43.25C197.722 43.25 198.422 43.15 199.322 42.95C199.522 42.95 200.222 43.25 201.622 43.85C202.422 43.75 203.222 44.85 204.322 46.85V48.45C204.322 48.55 204.422 48.85 204.522 49.35C204.322 50.05 204.322 50.45 204.322 50.45C204.322 50.75 204.522 51.15 204.722 51.55L204.522 53.25C204.522 53.55 204.622 53.85 204.922 54.25C204.922 54.55 204.722 54.85 204.322 55.45C204.322 56.05 204.922 56.75 206.122 57.55C206.322 58.05 206.722 58.65 207.422 59.35L208.322 59.15C208.622 59.15 209.122 59.25 210.022 59.65C210.222 59.65 210.422 59.55 210.622 59.25H210.922C210.922 59.35 211.522 59.55 212.722 59.75C213.822 59.65 214.622 59.35 215.122 58.75C215.622 59.25 215.922 59.55 216.022 59.45H216.522C217.522 58.55 218.022 57.85 217.922 57.25C217.522 57.45 217.222 57.35 216.822 57.25V57.25ZM183.622 25.55V25.05H184.122V25.55H183.622ZM188.122 23.55H188.622V24.05H188.122V23.55ZM188.322 26.25V25.75H188.822V26.25H188.322ZM189.322 25.05V24.55H189.822V25.05H189.322ZM190.322 23.35H190.822V23.85H190.322V23.35ZM190.522 26.15V25.65H191.022V26.15H190.522ZM205.822 27.85V28.35H205.322V28.25C205.422 28.25 205.522 28.15 205.622 28.05C205.622 28.05 205.522 28.05 205.322 28.15V27.75L205.822 27.85V27.85ZM204.422 24.55V25.05H203.922V24.55H204.422ZM203.422 26.25H202.922V25.75H203.422V26.25ZM203.222 23.55V24.05H202.722V23.55H203.222ZM202.222 24.75V25.25H201.722V24.75H202.222ZM201.222 26.45H200.722V25.95H201.222V26.45ZM201.022 23.65V24.15H200.522V23.65H201.022ZM199.922 24.95V25.45H199.422V24.95H199.922ZM198.922 26.55H198.422V26.05H198.922V26.55ZM198.722 23.85V24.35H198.222V23.85H198.722ZM197.722 25.05V25.55H197.222V25.05H197.722ZM196.722 26.75H196.222V26.25H196.722V26.75ZM196.322 23.85C196.522 23.85 196.622 23.95 196.622 24.15C196.622 24.35 196.522 24.45 196.322 24.55H196.022V24.25C196.022 24.05 196.122 23.95 196.322 23.85ZM195.522 25.25V25.75H195.022V25.25H195.522ZM194.422 26.95H193.922V26.45H194.422V26.95ZM194.222 24.25V24.75H193.722V24.25H194.222ZM193.222 25.95H192.722V25.45H193.222V25.95ZM193.022 23.15V23.65H192.522V23.15H193.022ZM191.522 24.45H192.022V24.95H191.522V24.45ZM191.722 26.65H192.222V27.15H191.722V26.65ZM191.822 28.95H192.322V29.45H191.822V28.95ZM193.922 40.25V39.75H194.422V40.25H193.922ZM201.622 38.25C201.522 38.25 201.522 38.25 201.622 38.25L201.522 38.05H201.622V37.95C201.422 38.05 201.322 38.15 201.122 38.15C201.122 38.25 201.222 38.35 201.222 38.45C201.122 38.45 201.122 38.55 201.022 38.55H200.822L199.922 38.35H199.522C199.222 38.45 198.922 38.55 198.622 38.95H198.422L197.622 38.55C197.322 38.55 196.922 38.75 196.322 39.15C195.722 39.15 195.222 39.25 194.922 39.25C194.022 39.35 193.322 38.15 192.922 35.85L193.522 34.95C193.522 34.85 193.422 34.65 193.322 34.45C193.422 34.45 193.522 34.15 193.622 33.45C193.622 33.25 193.522 33.15 193.422 33.15C193.322 31.95 192.922 31.45 192.122 31.45V30.95H192.322L193.122 31.05C193.122 30.95 193.222 30.85 193.322 30.85L193.022 29.75L193.422 28.15V27.95H193.122V27.45H193.622C193.622 27.55 193.722 27.75 193.822 27.95C194.022 27.95 194.622 27.65 195.522 27.15C195.822 27.15 196.222 27.25 196.622 27.35C196.822 27.35 197.222 27.15 197.922 26.95L198.922 27.35C199.122 27.35 199.522 27.15 200.022 26.75C200.122 26.75 200.422 26.85 200.822 27.15C201.122 26.95 201.522 26.75 201.922 26.55C202.822 26.25 203.722 26.45 204.422 26.85V26.55H204.922V27.05H204.622C205.222 27.55 205.622 28.25 205.822 29.05C206.122 29.35 206.222 29.85 206.322 30.35V30.45C206.222 30.55 206.022 30.65 205.922 30.75C205.922 30.85 205.922 31.05 205.822 31.15C205.922 31.05 206.122 30.95 206.322 30.85L206.422 32.15C206.322 33.95 204.822 35.95 201.622 38.25V38.25Z" fill="#E3CCB9"/><path d="M222.022 56.95C221.822 56.95 221.622 57.05 221.222 57.35C221.522 57.75 222.022 57.95 222.522 57.85H222.722V57.65C222.722 57.75 222.422 57.45 222.022 56.95V56.95Z" stroke="#231F20"/><path d="M219.622 21.45C221.522 21.45 223.222 21.55 224.722 21.85L225.322 21.45C225.722 21.65 226.222 21.75 226.622 21.65C226.922 21.65 227.222 21.45 227.522 21.25C228.522 21.55 229.122 21.65 229.322 21.65L230.522 21.05C230.622 21.05 230.822 21.05 231.022 21.15C231.722 20.95 232.322 20.85 232.822 20.85C233.322 20.85 233.622 20.95 233.622 21.15L233.922 20.95H234.122L235.122 21.05C235.522 20.75 235.822 20.65 236.022 20.65C236.422 20.85 236.922 20.95 237.322 20.85L239.222 20.65C240.322 20.55 241.222 21.65 241.922 23.95V24.15C241.722 24.55 241.422 24.85 241.022 25.05C240.322 24.95 239.722 24.95 239.222 25.05C239.122 25.05 238.922 25.15 238.722 25.25H235.022C233.422 25.35 232.522 26.05 232.222 27.45L232.022 28.65C232.222 29.05 232.422 29.45 232.422 29.85C232.322 31.65 232.322 33.05 232.422 34.15V34.35L232.622 35.35C232.522 35.45 232.522 36.25 232.522 37.85C232.722 38.65 232.722 39.05 232.822 39.15C232.822 39.25 232.822 39.45 232.722 39.65L232.922 40.85C233.022 42.85 233.022 44.15 233.022 44.65C233.222 45.65 233.322 46.25 233.322 46.45C233.022 47.45 232.922 48.05 233.022 48.45L233.122 49.45C233.422 50.55 233.622 51.15 233.622 51.25L233.722 52.75C233.822 54.15 235.222 54.85 237.722 54.65C239.222 54.55 240.322 54.55 240.922 54.75C241.322 54.45 241.722 54.35 242.222 54.25C243.122 54.55 243.622 55.25 243.722 56.35V56.65C243.822 57.65 242.722 58.25 240.622 58.35C240.622 58.45 240.222 58.65 239.422 58.75L236.122 58.65C235.522 58.85 235.022 58.95 234.522 58.95L233.022 59.05L231.822 58.85C231.522 59.05 231.222 59.25 230.922 59.25L229.122 59.35H227.322C226.822 59.65 226.422 59.75 225.922 59.75L224.822 59.55L222.622 60.75C221.722 60.85 220.522 59.85 219.322 57.95V57.65C219.222 56.65 220.122 55.85 222.122 55.25V55.05C224.122 54.95 225.722 55.05 227.022 55.15C228.922 54.65 229.822 53.65 229.722 51.95C229.422 49.55 229.122 47.75 228.822 46.65C229.022 45.45 229.122 44.55 229.122 43.95L228.722 41.35C228.722 40.55 228.822 40.15 228.822 40.05C228.622 38.25 228.322 37.05 228.022 36.45C228.122 35.75 228.322 34.45 228.422 32.65C228.622 32.65 228.722 32.55 228.722 32.25C228.122 28.65 227.522 26.85 227.022 26.85C226.022 26.65 225.422 26.55 225.222 26.55C225.122 26.55 224.822 26.65 224.222 26.75C224.022 26.55 222.822 26.55 220.622 26.55C220.622 26.35 220.122 26.15 219.322 26.15L218.722 26.35C217.822 26.05 217.322 25.45 217.322 24.75V24.55C217.122 23.45 217.922 22.35 219.622 21.45V21.45ZM274.622 38.05C274.822 37.85 275.122 37.55 275.422 37.45C276.622 36.35 277.222 35.35 277.222 34.45L277.022 34.15C277.122 34.15 277.522 33.35 278.222 31.65C278.222 31.65 278.122 31.65 278.122 31.55L278.022 31.45C277.922 31.35 277.922 31.15 278.022 31.05L278.122 30.95C278.222 30.75 278.322 30.75 278.522 30.85L279.222 27.85C278.622 26.75 278.222 25.95 277.922 25.15C277.822 25.35 277.622 25.35 277.422 25.15L277.222 24.95L277.522 24.55C277.522 24.45 277.622 24.45 277.722 24.45C277.622 24.15 277.522 23.85 277.522 23.65C276.722 22.95 276.322 22.55 276.322 22.45C274.322 20.15 272.022 18.55 269.222 17.85L268.422 18.05C268.322 18.05 267.722 17.95 266.622 17.75H266.422C266.222 17.75 266.122 17.85 266.122 18.05C266.022 18.05 265.222 17.85 263.822 17.45H263.622C263.022 17.55 262.322 17.75 261.622 18.25H261.122L259.922 17.65C259.922 17.75 259.722 17.95 259.122 18.35C259.022 18.35 258.622 18.25 257.822 18.15H257.322L253.622 17.95H253.522C253.922 19.25 254.122 20.55 254.022 21.85V22.05L254.222 24.25C254.322 25.35 254.322 26.25 254.322 26.85C254.322 27.35 254.222 27.75 254.222 27.95C254.322 28.75 254.522 29.25 254.822 29.55L254.722 29.85H255.222V30.05C255.222 30.25 255.022 31.45 254.722 33.65C255.622 35.95 256.122 37.85 256.322 39.25L255.922 39.95V40.15C255.922 40.65 256.122 41.25 256.522 41.75C256.522 43.35 256.422 44.85 256.022 46.35L256.222 49.35C256.222 49.65 256.422 50.05 256.822 50.75C256.722 51.05 256.622 51.25 256.522 51.25C256.622 52.15 255.322 52.75 252.822 52.95C252.822 52.85 252.422 52.65 251.622 52.35C249.622 52.45 248.222 53.45 247.322 55.15C247.422 56.45 248.922 57.25 251.722 57.75H251.922C252.922 57.45 253.522 57.35 253.622 57.35H253.822C254.422 57.25 255.322 57.25 256.422 57.35C257.122 56.95 257.922 56.75 258.622 56.55L261.622 57.15C261.622 57.05 261.622 56.95 261.822 56.95H262.122L263.122 57.05C263.522 56.85 263.922 56.65 264.322 56.65L265.622 56.55C266.722 56.65 267.322 56.75 267.422 56.75C267.822 56.75 268.322 56.55 268.622 56.15C269.822 56.05 270.622 55.15 271.022 53.35C271.022 52.75 270.622 52.25 269.922 51.85C268.522 51.85 267.522 51.75 266.822 51.65C266.322 51.65 265.922 51.85 265.522 52.05C263.422 52.25 262.022 51.85 261.422 50.95C261.222 49.25 260.922 48.05 260.522 47.35L261.522 44.05L261.322 43.75C261.222 42.45 261.722 41.65 262.922 41.25C265.422 41.15 267.222 41.05 268.122 41.05C269.022 41.05 269.922 40.65 270.922 40.05C271.522 40.15 271.822 40.15 271.922 40.15C272.522 40.05 273.422 39.55 274.722 38.65C274.422 38.15 274.522 38.15 274.622 38.05V38.05ZM275.822 30.05L275.722 29.95C275.622 29.85 275.622 29.75 275.722 29.55L275.822 29.45C275.922 29.25 276.122 29.25 276.222 29.35L276.322 29.45C276.522 29.55 276.522 29.75 276.422 29.95L276.322 30.05C276.122 30.15 275.922 30.15 275.822 30.05ZM278.022 29.95L277.622 29.65L277.922 29.25L278.322 29.55L278.022 29.95ZM278.122 27.85C278.322 27.95 278.322 28.15 278.122 28.25L278.022 28.35C277.922 28.55 277.722 28.55 277.622 28.45L277.522 28.35C277.422 28.25 277.322 28.05 277.422 27.95L277.522 27.85C277.622 27.65 277.722 27.65 277.922 27.85H278.122V27.85ZM277.322 26.25L277.422 26.15C277.522 26.05 277.722 25.95 277.822 26.05C277.922 26.35 278.022 26.65 277.922 26.75C277.822 26.95 277.622 26.95 277.422 26.85L277.322 26.75C277.222 26.65 277.122 26.45 277.322 26.25V26.25ZM276.922 31.55L276.822 31.65C276.722 31.85 276.522 31.85 276.322 31.75L276.222 31.65C276.122 31.55 276.122 31.25 276.222 30.85L276.622 30.95L276.822 31.15C277.022 31.35 277.122 31.45 276.922 31.55V31.55ZM276.622 28.45C276.322 28.55 276.022 28.65 275.922 28.55C275.822 28.45 275.722 28.35 275.822 28.15L275.922 28.05C276.022 27.85 276.222 27.85 276.422 27.95L276.522 28.05C276.722 28.15 276.722 28.25 276.622 28.45V28.45ZM276.422 26.85L276.322 27.05C276.222 27.25 276.022 27.25 275.922 27.05L275.822 26.95C275.722 26.85 275.722 26.65 275.822 26.55L275.922 26.35C276.022 26.25 276.222 26.25 276.322 26.35L276.422 26.45C276.522 26.55 276.522 26.75 276.422 26.85ZM276.322 25.15L276.122 25.35C276.022 25.55 275.822 25.55 275.622 25.45L275.522 25.35C275.422 25.25 275.322 25.05 275.522 24.85C275.622 24.75 275.822 24.65 275.922 24.75L276.322 25.15V25.15ZM275.422 23.15C275.522 23.05 275.622 23.05 275.822 23.15L276.022 23.35L275.622 23.85L275.422 23.65C275.322 23.55 275.322 23.35 275.422 23.15ZM275.322 31.35C275.422 31.45 275.522 31.65 275.322 31.75L275.222 31.85C275.122 32.05 274.922 32.05 274.822 31.95L274.722 31.85C274.622 31.75 274.522 31.55 274.622 31.35L274.922 30.95L275.322 31.35V31.35ZM274.922 28.15C275.022 28.25 275.022 28.55 274.922 28.95L274.622 28.85L274.322 28.65C274.222 28.55 274.222 28.35 274.222 28.25C274.622 28.15 274.822 28.05 274.922 28.15V28.15ZM273.522 21.95L273.622 21.85C273.722 21.75 273.922 21.65 274.022 21.75C274.222 21.85 274.222 22.05 274.122 22.25L274.022 22.35C273.922 22.55 273.722 22.55 273.522 22.45C273.422 22.25 273.422 22.15 273.522 21.95ZM272.722 22.55L272.622 22.65C272.522 22.85 272.322 22.85 272.122 22.75L272.022 22.65C271.922 22.55 271.922 22.35 272.022 22.15L272.122 22.05C272.222 21.85 272.322 21.85 272.522 21.95L272.622 22.05C272.822 22.15 272.822 22.35 272.722 22.55ZM271.722 20.55L271.822 20.45C271.922 20.35 272.122 20.35 272.322 20.45L272.422 20.55C272.622 20.65 272.622 20.85 272.522 20.95L272.422 21.05C272.322 21.25 272.122 21.25 271.922 21.15L271.822 21.05C271.622 20.85 271.622 20.75 271.722 20.55ZM270.922 21.05C270.822 21.25 270.622 21.25 270.522 21.15L270.222 20.95L270.422 20.75C270.522 20.55 270.722 20.55 270.922 20.75C271.022 20.75 271.022 20.95 270.922 21.05V21.05ZM271.022 22.45L270.722 22.85L270.322 22.55L270.622 22.15L271.022 22.45ZM270.322 18.95L270.722 19.25L270.422 19.65L270.022 19.35L270.322 18.95ZM269.522 22.65L269.222 23.05L268.822 22.75L269.122 22.35L269.522 22.65ZM269.022 21.45L268.622 21.15L268.922 20.75L269.322 21.05L269.022 21.45ZM268.722 19.15L269.122 19.45L268.822 19.85L268.422 19.55L268.722 19.15ZM267.522 23.35L267.922 23.45C267.922 23.35 267.922 23.25 268.022 23.25L268.822 23.15L268.522 23.65C268.422 23.65 268.222 23.65 268.022 23.55L267.522 23.95C267.322 23.95 267.222 23.85 267.222 23.65C267.222 23.55 267.322 23.45 267.522 23.35V23.35ZM269.722 35.85L269.022 35.55L266.522 36.55C266.322 36.55 265.622 36.55 264.222 36.45C263.622 36.65 263.222 36.65 262.922 36.75C261.322 36.15 260.422 35.25 260.322 33.85V33.35H260.822C260.822 32.85 260.622 32.55 260.322 32.55C260.522 31.85 260.622 30.75 260.722 29.35V29.05C260.222 27.25 260.022 26.05 260.022 25.55C260.122 25.55 260.122 25.45 260.122 25.35C260.022 25.35 259.922 25.35 259.922 25.25V24.95L260.522 24.85C260.522 24.75 260.422 24.65 260.422 24.65C260.522 24.65 260.622 24.75 260.622 24.85L260.822 24.35L260.722 24.25C261.022 24.35 261.322 24.35 261.422 24.35V24.05L261.022 23.55V23.25L261.822 23.05L261.722 23.55V23.75C261.822 23.75 263.622 23.85 267.122 23.95V24.45L267.822 25.05L267.622 24.75V24.55H267.822C268.022 24.55 268.122 24.65 268.122 24.85V25.05H267.822V25.25C268.122 25.25 268.422 25.35 268.822 25.45C268.822 25.25 268.922 25.15 269.122 25.15L268.722 24.65V24.35C268.922 24.05 269.022 23.85 269.022 23.65C270.022 23.75 270.522 23.85 270.522 24.05C271.122 23.95 272.222 24.85 273.722 26.55V27.15L273.322 27.95C273.922 29.15 274.322 30.15 274.322 31.15V31.45C274.522 32.45 272.922 33.95 269.722 35.85V35.85ZM220.822 30.95V31.15V30.95ZM244.522 33.25C244.622 33.05 244.622 32.95 244.622 32.85L244.522 33.25ZM244.622 32.85H244.722H244.622ZM118.722 67.75H257.822V90.75H118.722V67.75Z" fill="#E3CCB9"/><path d="M117.022 65.65H256.122V88.65H117.022V65.65Z" fill="#08032E"/><path d="M133.722 84.45L133.022 81.35H129.522L128.922 84.45H126.522L129.522 71.15H133.022L136.222 84.45H133.722ZM129.822 79.85H132.722L131.222 72.85L129.822 79.85ZM141.822 71.25H147.622C149.222 71.25 150.122 71.85 150.122 73.15V82.65C150.122 83.85 149.322 84.55 147.622 84.55H141.822V71.25ZM147.722 82.35V73.35C147.722 73.05 147.622 72.95 147.522 72.85C147.422 72.75 147.222 72.75 146.922 72.75H144.322V82.95H146.922C147.222 82.95 147.422 82.95 147.522 82.85C147.622 82.75 147.722 82.65 147.722 82.35ZM162.422 71.25H164.922L161.922 84.55H158.522L155.522 71.25H158.022L160.222 82.75L162.422 71.25V71.25ZM172.822 82.95H177.622V84.45H170.422V71.15H177.422V72.65H172.822V76.75H176.622V78.25H172.822V82.95V82.95ZM189.422 71.25H191.622V84.55H189.222L185.722 74.95V84.55H183.522V71.25H186.022L189.422 80.55V71.25ZM205.122 71.25V72.75H202.322V84.45H199.922V72.75H197.122V71.25H205.122V71.25ZM216.122 71.25H218.522V82.65C218.522 83.85 217.722 84.55 216.022 84.55H213.022C211.322 84.55 210.522 83.95 210.522 82.65V71.25H212.922V82.35C212.922 82.65 213.022 82.75 213.122 82.85C213.222 82.95 213.422 82.95 213.722 82.95H215.222C215.522 82.95 215.822 82.95 215.922 82.85C216.022 82.75 216.022 82.65 216.022 82.35V71.25H216.122ZM227.622 79.15V84.55H225.222V71.25H230.722C232.322 71.25 233.222 71.85 233.222 73.15V77.35C233.222 78.45 232.622 79.05 231.422 79.15L234.022 84.55H231.422L228.922 79.15H227.622ZM227.622 72.75V77.55H229.922C230.222 77.55 230.422 77.55 230.522 77.45C230.622 77.35 230.722 77.25 230.722 76.95V73.35C230.722 73.05 230.622 72.95 230.522 72.85C230.422 72.75 230.222 72.75 229.922 72.75H227.622V72.75ZM242.122 82.95H246.922V84.45H239.722V71.15H246.722V72.65H242.122V76.75H245.922V78.25H242.122V82.95V82.95Z" fill="#E5C9B7"/></svg>